<svg width="14" height="14" viewBox="0 0 14 14" fill="none" xmlns="http://www.w3.org/2000/svg">
<path d="M13.7064 0.29289C14.0969 0.68341 14.0969 1.31658 13.7064 1.7071L2.37312 13.0404C1.9826 13.4309 1.34943 13.4309 0.958906 13.0404C0.568386 12.6499 0.568386 12.0168 0.958906 11.6263L12.2923 0.29289C12.6828 -0.09763 13.3159 -0.09763 13.7064 0.29289Z" fill="white"/>
<path d="M0 1C0 0.44772 0.44772 0 1 0H13C13.5523 0 14 0.44772 14 1V13C14 13.5523 13.5523 14 13 14C12.4477 14 12 13.5523 12 13V2H1C0.44772 2 0 1.55228 0 1Z" fill="white"/>
</svg>
