<svg width="10" height="10" viewBox="0 0 10 10" fill="none" xmlns="http://www.w3.org/2000/svg">
<path d="M9.79147 0.209215C10.0704 0.488168 10.0704 0.940451 9.79147 1.2194L1.69597 9.31491C1.41701 9.59387 0.96473 9.59387 0.685777 9.31491C0.406824 9.03594 0.406824 8.58374 0.685777 8.30477L8.78134 0.209215C9.0603 -0.0697382 9.51251 -0.0697382 9.79147 0.209215Z" fill="#061619"/>
<path d="M0 0.714311C0 0.319812 0.319812 0 0.714311 0H9.28605C9.68054 0 10.0004 0.319812 10.0004 0.714311V9.28605C10.0004 9.68054 9.68054 10.0004 9.28605 10.0004C8.89156 10.0004 8.57174 9.68054 8.57174 9.28605V1.42862H0.714311C0.319812 1.42862 0 1.10881 0 0.714311Z" fill="#061619"/>
</svg>
