<svg width="140" height="140" viewBox="0 0 140 140" fill="none" xmlns="http://www.w3.org/2000/svg">
<circle cx="70" cy="70" r="70" fill="#F8553C"/>
<path d="M77.1267 22.4214C76.3209 22.3198 75.6046 22.1076 74.9779 21.7849C74.3512 21.4622 73.8275 21.0404 73.4069 20.5195C72.9962 19.9998 72.7068 19.3931 72.5389 18.6994C72.3723 17.996 72.3455 17.2177 72.4585 16.3644C72.5715 15.511 72.7996 14.7697 73.1427 14.1404C73.4858 13.511 73.9237 12.996 74.4564 12.5952C74.9989 12.1957 75.6153 11.9176 76.3054 11.7609C76.9956 11.6042 77.7437 11.5767 78.5495 11.6783C79.4733 11.7947 80.2729 12.0563 80.9484 12.4632C81.6252 12.8604 82.1479 13.365 82.5165 13.9768C82.8949 14.5899 83.0782 15.2807 83.0663 16.0493L80.7372 15.7557C80.697 15.3802 80.5718 15.0427 80.3617 14.7433C80.1627 14.4355 79.8866 14.1814 79.5335 13.9809C79.1902 13.7817 78.7777 13.6517 78.2962 13.591C77.6869 13.5142 77.1391 13.5767 76.6527 13.7786C76.1676 13.9709 75.763 14.3098 75.439 14.7954C75.126 15.2726 74.9187 15.8947 74.8171 16.6617C74.7409 17.2369 74.7424 17.7538 74.8216 18.2121C74.9119 18.6622 75.0706 19.0477 75.2979 19.3688C75.5251 19.6899 75.811 19.9453 76.1556 20.1349C76.51 20.3258 76.9181 20.4504 77.38 20.5086C77.8419 20.5668 78.2698 20.5428 78.6635 20.4364C79.0573 20.3301 79.3954 20.1534 79.6779 19.9063C79.9703 19.6605 80.1799 19.3604 80.3067 19.0059L82.6359 19.2995C82.4582 20.0375 82.1059 20.6608 81.5789 21.1695C81.0519 21.6782 80.4039 22.0449 79.6347 22.2696C78.8767 22.486 78.0407 22.5366 77.1267 22.4214Z" fill="white"/>
<path d="M88.0871 25.0156C87.5213 24.8081 87.0425 24.5395 86.6508 24.21C86.2625 23.8713 85.9642 23.4779 85.7558 23.0297C85.5474 22.5815 85.444 22.0943 85.4456 21.5681C85.4507 21.0329 85.5665 20.4712 85.7931 19.883C86.0825 19.132 86.4837 18.5303 86.9967 18.0781C87.5132 17.6168 88.1107 17.3299 88.7893 17.2173C89.4678 17.1047 90.2013 17.1929 90.9898 17.482C91.5463 17.6861 92.0187 17.9575 92.4069 18.2961C92.7952 18.6347 93.0889 19.0264 93.288 19.4713C93.4964 19.9195 93.5998 20.4067 93.5982 20.9328C93.6059 21.4624 93.4947 22.0258 93.2646 22.623C92.9787 23.3651 92.5775 23.9667 92.061 24.428C91.548 24.8802 90.9522 25.1626 90.2737 25.2752C89.6044 25.3912 88.8755 25.3047 88.0871 25.0156ZM88.6956 23.3952C89.0295 23.5176 89.3513 23.5478 89.661 23.4859C89.9835 23.4182 90.2707 23.2498 90.5226 22.9807C90.7837 22.715 91.0067 22.3424 91.1915 21.8628C91.331 21.5008 91.4142 21.175 91.4411 20.8853C91.4715 20.5867 91.4473 20.3196 91.3686 20.0842C91.29 19.8488 91.1643 19.6529 90.9916 19.4967C90.8224 19.3313 90.6126 19.2028 90.3622 19.1109C90.0282 18.9884 89.7018 18.9565 89.3828 19.0151C89.0731 19.0771 88.7876 19.241 88.5265 19.5067C88.2653 19.7724 88.0406 20.1495 87.8523 20.6382C87.7128 21.0002 87.6279 21.3305 87.5975 21.6292C87.5799 21.9222 87.6104 22.1865 87.6891 22.4219C87.7712 22.6482 87.8969 22.8441 88.0661 23.0094C88.2353 23.1747 88.4451 23.3033 88.6956 23.3952Z" fill="white"/>
<path d="M94.2119 27.3694L98.4598 20.7938L100.233 21.884L99.5395 23.1204L99.615 23.1668C100.085 22.8386 100.581 22.6867 101.104 22.7111C101.632 22.7274 102.135 22.8825 102.613 23.1763C102.949 23.3825 103.224 23.6264 103.441 23.9079C103.671 24.1865 103.822 24.4965 103.894 24.838C103.975 25.1847 103.96 25.5699 103.85 25.9938C103.754 26.4146 103.547 26.8704 103.23 27.3611L100.663 31.3359L98.8142 30.1993L101.128 26.6171C101.366 26.249 101.518 25.914 101.584 25.6119C101.659 25.315 101.641 25.0526 101.531 24.8247C101.426 24.5886 101.222 24.3778 100.92 24.1923C100.602 23.9964 100.286 23.905 99.9729 23.9182C99.6598 23.9314 99.368 24.0205 99.0974 24.1856C98.8268 24.3506 98.6017 24.5721 98.4221 24.8502L96.0604 28.506L94.2119 27.3694Z" fill="white"/>
<path d="M104.562 34.6323C104.051 34.1897 103.778 33.7467 103.744 33.3036C103.716 32.8532 103.936 32.3713 104.403 31.8579L107.184 28.7989L106.117 27.875L107.281 26.595L108.348 27.5189L109.789 25.9351L111.561 27.1979L109.983 28.9335L111.184 29.9729L110.02 31.2529L108.819 30.2136L106.304 32.9797C106.139 33.1605 106.072 33.3219 106.102 33.464C106.131 33.6061 106.228 33.7477 106.391 33.8888L107.08 34.4855L105.896 35.7872L104.562 34.6323Z" fill="white"/>
<path d="M108.946 39.2394C108.641 38.8709 108.433 38.4815 108.323 38.0713C108.221 37.6551 108.214 37.2316 108.303 36.8009C108.4 36.3641 108.599 35.9277 108.901 35.4915C109.208 35.0628 109.612 34.6511 110.113 34.2563C110.792 33.7217 111.454 33.3677 112.1 33.1942C112.76 33.0221 113.366 33.0232 113.918 33.1973C114.477 33.3654 114.959 33.6939 115.364 34.1828C115.619 34.4911 115.8 34.8089 115.905 35.1361C116.018 35.4571 116.06 35.7778 116.032 36.098C116.012 36.4121 115.921 36.7017 115.758 36.9666L115.833 37.0569L116.929 36.3046L118.227 37.8727L112.029 42.7562L110.731 41.1881L111.727 40.2913L111.653 40.201C111.206 40.354 110.735 40.3463 110.239 40.178C109.757 40.011 109.326 39.6982 108.946 39.2394ZM110.817 38.7531C111.066 39.0539 111.337 39.2505 111.63 39.3428C111.929 39.4426 112.235 39.4503 112.547 39.3659C112.859 39.2814 113.162 39.1238 113.455 38.893L114.068 38.4101C114.368 38.1732 114.587 37.914 114.723 37.6326C114.874 37.3526 114.93 37.0594 114.893 36.7531C114.862 36.4543 114.738 36.1733 114.52 35.91C114.259 35.5942 113.968 35.3886 113.647 35.2934C113.332 35.2058 112.993 35.2186 112.628 35.332C112.271 35.4393 111.9 35.6448 111.514 35.9485C111.144 36.24 110.861 36.544 110.664 36.8605C110.468 37.1769 110.38 37.4944 110.402 37.8128C110.423 38.1313 110.562 38.4447 110.817 38.7531Z" fill="white"/>
<path d="M115.071 48.1255C114.796 47.6109 114.631 47.1011 114.573 46.5961C114.525 46.0867 114.581 45.595 114.742 45.1212C114.907 44.6559 115.17 44.228 115.532 43.8374C115.898 43.4555 116.353 43.1261 116.898 42.8494C117.452 42.5683 117.996 42.3954 118.531 42.3307C119.075 42.2615 119.586 42.2967 120.062 42.4362C120.552 42.5798 120.995 42.8236 121.391 43.1676C121.795 43.5071 122.139 43.9427 122.423 44.4744C122.734 45.0576 122.897 45.6344 122.91 46.205C122.938 46.7796 122.822 47.3068 122.564 47.7865C122.315 48.2618 121.934 48.6462 121.42 48.9397L120.439 47.1002C120.653 46.9368 120.805 46.7506 120.895 46.5417C120.989 46.3413 121.026 46.1267 121.004 45.8978C120.996 45.6731 120.932 45.4493 120.813 45.2263C120.681 44.9776 120.511 44.7857 120.305 44.6506C120.108 44.511 119.883 44.4238 119.629 44.3889C119.385 44.3495 119.117 44.3602 118.825 44.421C118.539 44.4904 118.237 44.6054 117.92 44.7661C117.455 45.0026 117.1 45.259 116.856 45.5353C116.626 45.8157 116.491 46.1075 116.452 46.4108C116.426 46.7182 116.493 47.022 116.653 47.3221C116.795 47.588 116.96 47.7929 117.149 47.937C117.351 48.0851 117.565 48.1725 117.791 48.1992C118.031 48.23 118.263 48.2047 118.488 48.1234L119.469 49.9628C118.906 50.2052 118.347 50.2876 117.791 50.2099C117.236 50.1322 116.725 49.9176 116.258 49.5661C115.791 49.2145 115.396 48.7343 115.071 48.1255Z" fill="white"/>
<path d="M118.569 55.9729C118.355 55.3393 118.348 54.8226 118.547 54.4228C118.755 54.02 119.193 53.7113 119.861 53.4966L123.843 52.2176L123.396 50.8953L125.062 50.3601L125.509 51.6824L127.57 51.0202L128.451 52.9814L126.192 53.7071L126.694 55.1946L125.028 55.7298L124.526 54.2423L120.926 55.3989C120.691 55.4745 120.549 55.581 120.502 55.7184C120.454 55.8558 120.465 56.0255 120.533 56.2275L120.821 57.0814L119.127 57.6257L118.569 55.9729Z" fill="white"/>
<path d="M120.578 66.4545C120.541 65.8659 120.629 65.357 120.84 64.928C121.052 64.4989 121.383 64.1645 121.835 63.9246C122.296 63.684 122.863 63.5438 123.536 63.5038L128.491 63.2094L128.624 65.3371L124.247 65.5972C123.832 65.6219 123.484 65.691 123.203 65.8045C122.923 65.9277 122.71 66.1002 122.565 66.3219C122.431 66.5526 122.374 66.8417 122.396 67.1891C122.418 67.5461 122.526 67.8448 122.72 68.0851C122.914 68.3254 123.158 68.5046 123.453 68.6226C123.759 68.7401 124.084 68.7885 124.43 68.768L128.822 68.507L128.955 70.6347L121.003 71.1073L120.875 69.0664L122.324 68.8932L122.318 68.8063C121.792 68.6439 121.376 68.349 121.072 67.9215C120.778 67.5032 120.613 67.0142 120.578 66.4545Z" fill="white"/>
<path d="M120.352 76.7484C120.421 76.2307 120.542 75.7732 120.715 75.376C120.898 74.98 121.122 74.6477 121.388 74.3792C121.652 74.1203 121.952 73.9293 122.288 73.8063C122.634 73.6845 123 73.6431 123.384 73.6822L123.106 75.7673C122.857 75.7648 122.646 75.8112 122.473 75.9062C122.31 76.0026 122.177 76.1416 122.073 76.3234C121.977 76.516 121.912 76.7417 121.877 77.0005C121.825 77.3936 121.86 77.6953 121.982 77.9058C122.102 78.1258 122.29 78.252 122.546 78.2844C122.752 78.3106 122.916 78.2827 123.036 78.2005C123.167 78.1196 123.277 77.9727 123.365 77.7597C123.462 77.5575 123.559 77.2774 123.657 76.9193C123.853 76.2716 124.069 75.7384 124.305 75.3199C124.541 74.9013 124.83 74.6066 125.172 74.4356C125.515 74.2646 125.942 74.2115 126.453 74.2764C126.964 74.3413 127.388 74.5316 127.726 74.8474C128.062 75.1728 128.301 75.5931 128.442 76.1082C128.593 76.6246 128.625 77.2087 128.538 77.8606C128.455 78.4837 128.279 79.0123 128.012 79.4462C127.752 79.891 127.419 80.2192 127.011 80.4306C126.612 80.6529 126.164 80.7472 125.669 80.7136L125.947 78.6285C126.163 78.6559 126.342 78.625 126.484 78.5358C126.635 78.4574 126.756 78.3363 126.847 78.1725C126.938 78.0182 126.998 77.8309 127.027 77.6104C127.072 77.2748 127.034 76.997 126.914 76.777C126.802 76.5678 126.618 76.447 126.362 76.4146C126.176 76.3909 126.016 76.4243 125.884 76.5148C125.761 76.6161 125.648 76.787 125.546 77.0275C125.444 77.268 125.337 77.5859 125.224 77.981C125.051 78.6025 124.849 79.1082 124.617 79.4979C124.385 79.8877 124.094 80.1627 123.743 80.3228C123.401 80.4842 122.97 80.5319 122.45 80.4658C121.909 80.3972 121.466 80.1947 121.122 79.8585C120.775 79.5318 120.538 79.102 120.409 78.5689C120.28 78.0359 120.261 77.4291 120.352 76.7484Z" fill="white"/>
<path d="M124.135 89.5854L124.788 89.8288L125.588 90.3447L125.251 89.4583L125.155 88.7703L126.036 88.6332L126.137 89.3077L126.114 90.2614L126.734 89.5304L127.271 89.0941L127.834 89.7698L127.292 90.2195L126.449 90.6658L127.398 90.8024L128.05 91.0458L127.726 91.872L127.074 91.6286L126.268 91.1263L126.591 92.0075L126.688 92.6955L125.812 92.819L125.705 92.1581L125.742 91.2096L125.108 91.9354L124.571 92.3717L124.008 91.6961L124.55 91.2463L125.407 90.8052L124.464 90.6551L123.811 90.4117L124.135 89.5854Z" fill="white"/>
<path d="M111.001 99.59C111.487 98.9547 112.028 98.4497 112.623 98.0751C113.219 97.7005 113.853 97.4621 114.524 97.36C115.19 97.2656 115.874 97.3171 116.576 97.5146C117.286 97.7179 117.994 98.0768 118.701 98.5913C119.408 99.1059 119.958 99.6633 120.352 100.264C120.746 100.864 120.991 101.489 121.088 102.138C121.179 102.796 121.125 103.456 120.927 104.12C120.728 104.783 120.386 105.433 119.9 106.068C119.343 106.797 118.717 107.348 118.022 107.723C117.336 108.104 116.629 108.301 115.901 108.314C115.168 108.335 114.461 108.152 113.78 107.765L115.185 105.929C115.54 106.079 115.903 106.138 116.273 106.106C116.646 106.088 117.008 105.977 117.361 105.776C117.707 105.581 118.025 105.294 118.316 104.915C118.683 104.434 118.896 103.938 118.954 103.425C119.02 102.919 118.916 102.408 118.641 101.895C118.368 101.395 117.914 100.913 117.279 100.451C116.802 100.104 116.34 99.8518 115.892 99.6943C115.445 99.5504 115.023 99.4963 114.625 99.532C114.226 99.5678 113.858 99.6857 113.52 99.8856C113.175 100.093 112.864 100.379 112.585 100.743C112.307 101.108 112.119 101.483 112.021 101.87C111.922 102.257 111.914 102.631 111.997 102.993C112.073 103.362 112.238 103.687 112.493 103.969L111.088 105.805C110.516 105.292 110.132 104.687 109.936 103.989C109.74 103.292 109.73 102.561 109.907 101.797C110.085 101.046 110.45 100.311 111.001 99.59Z" fill="white"/>
<path d="M103.307 107.653C103.769 107.272 104.243 106.996 104.729 106.823C105.222 106.658 105.719 106.596 106.222 106.638C106.725 106.679 107.211 106.829 107.681 107.088C108.157 107.353 108.603 107.726 109.018 108.206C109.549 108.82 109.891 109.455 110.045 110.113C110.205 110.778 110.17 111.426 109.94 112.059C109.709 112.692 109.272 113.273 108.628 113.803C108.174 114.177 107.7 114.447 107.208 114.612C106.715 114.777 106.221 114.836 105.726 114.788C105.224 114.747 104.737 114.597 104.268 114.339C103.79 114.086 103.341 113.717 102.919 113.229C102.395 112.623 102.052 111.988 101.892 111.323C101.738 110.665 101.777 110.02 102.007 109.387C102.23 108.761 102.664 108.183 103.307 107.653ZM104.46 108.962C104.187 109.187 104.003 109.446 103.907 109.74C103.81 110.047 103.82 110.374 103.938 110.72C104.048 111.072 104.272 111.444 104.611 111.835C104.867 112.131 105.118 112.361 105.364 112.525C105.616 112.697 105.867 112.807 106.115 112.855C106.364 112.903 106.601 112.892 106.825 112.821C107.056 112.758 107.273 112.642 107.478 112.473C107.75 112.249 107.938 111.987 108.042 111.686C108.137 111.392 108.13 111.069 108.02 110.717C107.91 110.365 107.682 109.99 107.337 109.591C107.082 109.295 106.828 109.062 106.575 108.89C106.322 108.732 106.071 108.629 105.822 108.581C105.579 108.54 105.343 108.551 105.112 108.615C104.881 108.678 104.664 108.794 104.46 108.962Z" fill="white"/>
<path d="M98.2164 111.719L102.031 118.542L100.191 119.521L99.4228 118.328L99.3445 118.37C99.4093 118.93 99.3033 119.427 99.0265 119.861C98.7545 120.303 98.3705 120.656 97.8747 120.919C97.5267 121.105 97.174 121.221 96.8165 121.268C96.4551 121.328 96.104 121.306 95.7631 121.201C95.4136 121.1 95.0759 120.9 94.7501 120.6C94.4203 120.313 94.1131 119.915 93.8284 119.406L91.5223 115.281L93.4405 114.26L95.5188 117.978C95.7323 118.359 95.9581 118.652 96.1961 118.856C96.4255 119.064 96.6691 119.177 96.9269 119.194C97.1894 119.219 97.4773 119.149 97.7905 118.982C98.121 118.806 98.3567 118.582 98.4975 118.309C98.6383 118.035 98.7007 117.743 98.6849 117.432C98.6691 117.122 98.5806 116.822 98.4192 116.533L96.2982 112.739L98.2164 111.719Z" fill="white"/>
<path d="M86.6707 116.991C87.3165 116.772 87.8459 116.756 88.2589 116.944C88.6752 117.14 88.9988 117.563 89.2299 118.211L90.6066 122.073L91.9544 121.616L92.5304 123.232L91.1827 123.69L91.8954 125.689L89.9 126.581L89.1189 124.39L87.6027 124.904L87.0266 123.288L88.5428 122.773L87.298 119.281C87.2166 119.053 87.1051 118.916 86.9635 118.872C86.8219 118.828 86.6481 118.841 86.4422 118.911L85.5718 119.206L84.986 117.563L86.6707 116.991Z" fill="white"/>
<path d="M80.396 118.467C80.8748 118.388 81.3244 118.403 81.7449 118.51C82.167 118.627 82.5485 118.829 82.8894 119.116C83.232 119.413 83.5242 119.797 83.766 120.267C83.9981 120.738 84.1676 121.284 84.2744 121.904C84.4191 122.743 84.4105 123.479 84.2486 124.114C84.0785 124.759 83.7804 125.274 83.3542 125.657C82.9296 126.051 82.3997 126.299 81.7646 126.404C81.3639 126.469 80.9917 126.467 80.6478 126.396C80.3056 126.334 79.9983 126.213 79.726 126.032C79.4553 125.861 79.2416 125.641 79.0848 125.373L78.9675 125.392L79.1015 126.694L77.064 127.028L75.7423 119.363L77.7797 119.029L78.0921 120.316L78.2093 120.296C78.2917 119.842 78.5298 119.445 78.9235 119.106C79.309 118.778 79.7999 118.565 80.396 118.467ZM79.9125 120.296C79.5217 120.36 79.2132 120.494 78.987 120.698C78.7511 120.903 78.5943 121.16 78.5166 121.466C78.4389 121.773 78.4313 122.108 78.4938 122.47L78.6245 123.228C78.6886 123.6 78.8129 123.913 78.9973 124.167C79.1737 124.432 79.4078 124.624 79.6996 124.743C79.9816 124.863 80.2936 124.895 80.6356 124.839C81.046 124.772 81.3724 124.625 81.6148 124.399C81.8474 124.174 82.0025 123.879 82.0801 123.514C82.1594 123.158 82.158 122.741 82.0758 122.265C81.9968 121.807 81.8643 121.417 81.6781 121.095C81.4918 120.772 81.2512 120.542 80.9561 120.404C80.661 120.266 80.3132 120.23 79.9125 120.296Z" fill="white"/>
<path d="M69.3932 119.316C69.9875 119.335 70.5242 119.444 71.0033 119.643C71.4822 119.851 71.8939 120.14 72.2385 120.509C72.5732 120.877 72.8264 121.311 72.9981 121.81C73.1599 122.308 73.2308 122.857 73.2108 123.456C73.1904 124.065 73.078 124.613 72.8733 125.099C72.6684 125.596 72.3868 126.012 72.0285 126.349C71.66 126.695 71.2251 126.952 70.7238 127.12C70.2221 127.298 69.6643 127.377 69.0502 127.357C68.3767 127.336 67.7818 127.191 67.2652 126.923C66.7385 126.665 66.3241 126.308 66.022 125.854C65.7196 125.409 65.5632 124.896 65.5529 124.315L67.6773 124.383C67.7181 124.645 67.8099 124.866 67.9526 125.044C68.0855 125.223 68.2594 125.359 68.4744 125.453C68.6791 125.556 68.9102 125.612 69.1677 125.62C69.455 125.629 69.7094 125.579 69.9312 125.47C70.1526 125.371 70.341 125.222 70.4964 125.024C70.6514 124.835 70.7732 124.602 70.8618 124.324C70.9405 124.046 70.9856 123.733 70.9973 123.386C71.0144 122.874 70.9592 122.446 70.8319 122.104C70.6943 121.77 70.4997 121.513 70.248 121.331C69.9861 121.158 69.6818 121.066 69.3351 121.055C69.0281 121.045 68.764 121.085 68.5429 121.175C68.3116 121.274 68.1285 121.413 67.9936 121.593C67.8485 121.781 67.7572 121.991 67.7197 122.222L65.5953 122.155C65.655 121.557 65.8556 121.041 66.1973 120.607C66.539 120.173 66.9813 119.844 67.5241 119.619C68.067 119.394 68.6901 119.293 69.3932 119.316Z" fill="white"/>
<path d="M60.6759 118.452C61.347 118.58 61.8126 118.826 62.0728 119.191C62.3312 119.565 62.3929 120.089 62.2582 120.763L61.4554 124.777L62.8559 125.043L62.52 126.723L61.1194 126.456L60.7038 128.534L58.5194 128.325L58.9749 126.048L57.3993 125.748L57.7353 124.068L59.3108 124.368L60.0368 120.739C60.0842 120.502 60.0582 120.329 59.9585 120.222C59.8589 120.114 59.7021 120.04 59.4881 119.999L58.5836 119.827L58.9253 118.119L60.6759 118.452Z" fill="white"/>
<path d="M50.3032 115.028C50.8472 115.286 51.259 115.609 51.5386 116C51.8183 116.39 51.9547 116.835 51.9477 117.337C51.9364 117.847 51.7837 118.398 51.4898 118.99L49.3242 123.348L47.3581 122.418L49.2708 118.569C49.4523 118.204 49.5612 117.874 49.5974 117.579C49.6247 117.281 49.5748 117.015 49.4478 116.783C49.3075 116.556 49.0769 116.366 48.7559 116.214C48.426 116.058 48.1062 116.004 47.7966 116.051C47.4869 116.098 47.207 116.218 46.9568 116.411C46.7023 116.613 46.4994 116.866 46.3481 117.171L44.4289 121.033L42.4628 120.103L45.9381 113.109L47.824 114.001L47.2688 115.318L47.3491 115.356C47.7522 114.988 48.2193 114.779 48.7505 114.729C49.2685 114.684 49.7861 114.784 50.3032 115.028Z" fill="white"/>
<path d="M41.2969 109.832C41.7255 110.145 42.0748 110.472 42.3449 110.814C42.609 111.163 42.7959 111.517 42.9054 111.874C43.0071 112.226 43.0304 112.575 42.9755 112.921C42.9146 113.275 42.7725 113.606 42.549 113.914L40.8228 112.655C40.9473 112.444 41.0094 112.242 41.0091 112.048C41.0029 111.863 40.9441 111.681 40.8328 111.503C40.7077 111.328 40.538 111.162 40.3237 111.005C39.9983 110.768 39.7117 110.65 39.464 110.65C39.2083 110.645 39.0034 110.743 38.8491 110.944C38.7245 111.106 38.6693 111.259 38.6834 111.402C38.6915 111.553 38.7691 111.718 38.916 111.898C39.0491 112.079 39.2516 112.3 39.5235 112.558C40.0059 113.043 40.3762 113.488 40.6345 113.894C40.8928 114.299 41.0143 114.69 40.9991 115.065C40.9838 115.44 40.8219 115.829 40.5134 116.231C40.2049 116.634 39.8268 116.901 39.3791 117.034C38.9235 117.16 38.431 117.157 37.9016 117.024C37.3663 116.899 36.8288 116.64 36.2891 116.246C35.7732 115.87 35.3871 115.462 35.1307 115.021C34.8605 114.583 34.731 114.138 34.7422 113.688C34.7395 113.239 34.8745 112.813 35.1474 112.408L36.8736 113.667C36.7431 113.838 36.6829 114.005 36.6931 114.169C36.6894 114.336 36.7382 114.498 36.8395 114.656C36.9329 114.809 37.0709 114.952 37.2534 115.085C37.5312 115.288 37.7979 115.392 38.0536 115.397C38.2954 115.404 38.4934 115.307 38.6477 115.106C38.7604 114.959 38.8087 114.807 38.7926 114.65C38.7626 114.496 38.6652 114.316 38.5004 114.111C38.3356 113.907 38.1043 113.66 37.8066 113.37C37.3362 112.918 36.9837 112.498 36.7492 112.11C36.5147 111.722 36.4121 111.339 36.4412 110.962C36.4644 110.593 36.6332 110.203 36.9477 109.792C37.274 109.367 37.6719 109.089 38.1414 108.961C38.6029 108.827 39.1034 108.836 39.6427 108.988C40.182 109.14 40.7334 109.421 41.2969 109.832Z" fill="white"/>
<path d="M27.9678 106.762L27.4314 107.199L26.5791 107.628L27.5365 107.775L28.199 108.028L27.8912 108.846L27.2383 108.603L26.3968 108.117L26.7476 109.002L26.8755 109.673L25.9964 109.822L25.8589 109.14L25.8716 108.205L25.2859 108.946L24.7496 109.382L24.1686 108.703L24.705 108.267L25.5478 107.826L24.6018 107.671L23.9394 107.417L24.2566 106.611L24.9 106.842L25.7301 107.338L25.3908 106.443L25.2628 105.773L26.1419 105.624L26.2794 106.305L26.2553 107.25L26.8505 106.52L27.3869 106.083L27.9678 106.762Z" fill="white"/>
<path d="M25.4208 90.6928C25.7521 91.4167 25.94 92.1236 25.9844 92.8136C26.0289 93.5035 25.933 94.1594 25.6966 94.7811C25.4562 95.3941 25.0764 95.9512 24.5571 96.4527C24.0287 96.9581 23.3619 97.3862 22.5566 97.737C21.7513 98.0878 20.984 98.2844 20.2546 98.3269C19.5253 98.3693 18.8465 98.2733 18.2182 98.0387C17.586 97.7954 17.0214 97.4272 16.5245 96.9343C16.0276 96.4414 15.6135 95.8331 15.2822 95.1092C14.9025 94.2794 14.7144 93.4773 14.7181 92.7028C14.7127 91.9323 14.8815 91.2341 15.2245 90.6082C15.5635 89.9736 16.0722 89.4608 16.7507 89.07L17.7081 91.1621C17.4007 91.3913 17.1708 91.6715 17.0184 92.0025C16.853 92.3287 16.7746 92.691 16.7834 93.0895C16.7881 93.4792 16.8894 93.8903 17.0874 94.3229C17.3378 94.8702 17.6782 95.2937 18.1083 95.5933C18.5294 95.8969 19.0368 96.057 19.6304 96.0737C20.211 96.0855 20.8632 95.9337 21.587 95.6184C22.1299 95.3819 22.5812 95.1112 22.9409 94.8064C23.2874 94.4966 23.5419 94.1634 23.7043 93.8068C23.8666 93.4502 23.941 93.0791 23.9272 92.6933C23.9094 92.2988 23.8056 91.894 23.6157 91.4791C23.4258 91.0642 23.1817 90.7206 22.8834 90.4482C22.5851 90.1758 22.2543 89.9864 21.8909 89.8801C21.5234 89.7648 21.1517 89.7468 20.7755 89.826L19.818 87.7338C20.5561 87.497 21.285 87.4654 22.0047 87.6389C22.7244 87.8124 23.383 88.1608 23.9805 88.6839C24.565 89.2022 25.0451 89.8719 25.4208 90.6928Z" fill="white"/>
<path d="M21.9748 80.1946C22.0879 80.7739 22.1022 81.3125 22.0179 81.8104C21.9238 82.3101 21.7349 82.7634 21.4512 83.1704C21.1675 83.5774 20.795 83.9173 20.3338 84.19C19.8629 84.4645 19.311 84.6605 18.6783 84.7781C17.8704 84.9282 17.135 84.9074 16.4721 84.7156C15.7995 84.5257 15.2373 84.1775 14.7853 83.671C14.3334 83.1645 14.0286 82.5076 13.871 81.7004C13.7598 81.1306 13.7512 80.5958 13.8453 80.0961C13.9394 79.5964 14.1293 79.1478 14.4148 78.7503C14.6985 78.3433 15.0709 78.0035 15.5322 77.7308C15.9915 77.4486 16.5424 77.2478 17.1849 77.1284C17.9831 76.9801 18.7185 77.0009 19.3911 77.1909C20.0539 77.3826 20.6113 77.7318 21.0633 78.2382C21.5133 78.7352 21.8172 79.3874 21.9748 80.1946ZM20.24 80.5317C20.1733 80.1898 20.0321 79.906 19.8166 79.6804C19.5894 79.447 19.2926 79.2955 18.9259 79.2259C18.5574 79.1467 18.1152 79.1551 17.5993 79.251C17.2099 79.3233 16.8815 79.4237 16.614 79.5521C16.3368 79.6824 16.1157 79.8416 15.9507 80.0297C15.7857 80.2178 15.6798 80.4245 15.6329 80.6497C15.5764 80.8767 15.5731 81.1184 15.6232 81.3748C15.6899 81.7167 15.832 82.0052 16.0494 82.2404C16.2649 82.4661 16.557 82.6185 16.9255 82.6976C17.294 82.7767 17.7411 82.7675 18.2667 82.6698C18.6561 82.5974 18.9894 82.4962 19.2666 82.3659C19.5322 82.228 19.7475 82.065 19.9125 81.8768C20.0678 81.6905 20.1737 81.4839 20.2303 81.2568C20.2868 81.0298 20.2901 80.7881 20.24 80.5317Z" fill="white"/>
<path d="M20.8435 73.8377L12.8771 73.7353L12.9047 71.6908L14.3476 71.6223L14.3488 71.5353C13.8166 71.3158 13.4247 70.982 13.1731 70.5341C12.9115 70.086 12.7845 69.5864 12.7919 69.0354C12.7972 68.6487 12.8664 68.2919 12.9996 67.9649C13.1231 67.6281 13.3153 67.3405 13.5762 67.1022C13.8372 66.8541 14.1816 66.6652 14.6095 66.5353C15.0276 66.3957 15.5339 66.3297 16.1284 66.3373L20.9439 66.3992L20.9151 68.5307L16.5753 68.4749C16.1294 68.4692 15.7571 68.5176 15.4584 68.6201C15.1599 68.713 14.9398 68.8648 14.7982 69.0757C14.6467 69.2865 14.5686 69.5658 14.5639 69.9138C14.5589 70.2812 14.6439 70.5916 14.8189 70.8453C14.9939 71.0989 15.2241 71.2952 15.5096 71.4342C15.7951 71.5733 16.1063 71.6449 16.4432 71.6493L20.8722 71.7062L20.8435 73.8377Z" fill="white"/>
<path d="M21.7873 61.421C21.6673 62.0777 21.4225 62.5359 21.0529 62.7957C20.6736 63.0538 20.1376 63.1226 19.445 63.0021L15.3184 62.2843L15.068 63.6548L13.3413 63.3545L13.5917 61.984L11.4553 61.6124L11.634 59.4782L13.9752 59.8854L14.257 58.3436L15.9837 58.6439L15.7019 60.1857L19.4334 60.8348C19.6773 60.8772 19.8535 60.8489 19.9622 60.75C20.0709 60.6511 20.1443 60.4969 20.1826 60.2875L20.3444 59.4024L22.1003 59.7078L21.7873 61.421Z" fill="white"/>
<path d="M23.5368 55.3568C23.3728 55.8027 23.1399 56.1782 22.8382 56.4834C22.5271 56.7854 22.1598 57.0111 21.7363 57.1607C21.3035 57.3071 20.8178 57.3681 20.2792 57.3439C19.744 57.3106 19.1733 57.1879 18.567 56.9756C17.7463 56.6883 17.0919 56.3205 16.604 55.8724C16.1102 55.4119 15.796 54.9065 15.6615 54.3561C15.5177 53.8025 15.5546 53.23 15.7722 52.6385C15.9094 52.2655 16.0939 51.95 16.3255 51.6922C16.5479 51.4311 16.8065 51.2289 17.1014 51.0856C17.3869 50.9391 17.688 50.8647 18.0046 50.8626L18.0447 50.7534L16.8157 50.2307L17.5136 48.3335L25.0124 50.9587L24.3145 52.8559L23.0113 52.4921L22.9711 52.6013C23.3373 52.8938 23.5757 53.2906 23.6862 53.7915C23.7908 54.28 23.741 54.8018 23.5368 55.3568ZM22.138 54.0506C22.2719 53.6866 22.3031 53.3586 22.2315 53.0665C22.1633 52.7653 22.0111 52.5066 21.7748 52.2903C21.5385 52.0741 21.2431 51.9039 20.8887 51.7798L20.1472 51.5203C19.7835 51.3929 19.4429 51.3456 19.1256 51.3783C18.8023 51.3986 18.5162 51.5039 18.2673 51.6941C18.0217 51.8751 17.8403 52.1249 17.7232 52.4434C17.5826 52.8256 17.5541 53.175 17.6376 53.4919C17.7244 53.7996 17.9123 54.0759 18.2012 54.3209C18.4808 54.5625 18.8538 54.765 19.3201 54.9283C19.7678 55.085 20.1813 55.163 20.5605 55.1623C20.9398 55.1615 21.2633 55.0693 21.5308 54.8857C21.7984 54.702 22.0008 54.4237 22.138 54.0506Z" fill="white"/>
<path d="M28.1371 45.6346C27.8288 46.1306 27.4683 46.5335 27.0556 46.8433C26.6343 47.1481 26.1745 47.3565 25.676 47.4687C25.1827 47.5725 24.6711 47.5751 24.1414 47.4765C23.6168 47.3697 23.0918 47.1609 22.5665 46.8501C22.0327 46.5343 21.5985 46.17 21.264 45.7573C20.921 45.3396 20.6869 44.8958 20.5618 44.4261C20.4332 43.943 20.4169 43.4472 20.5128 42.9386C20.6003 42.4251 20.8033 41.912 21.1218 41.3995C21.4712 40.8374 21.8922 40.4024 22.3848 40.0947C22.8741 39.7736 23.3959 39.5961 23.95 39.5622C24.4957 39.5232 25.0305 39.6417 25.5543 39.9177L24.4522 41.6908C24.1977 41.5968 23.9557 41.5667 23.7261 41.6004C23.5017 41.6259 23.2948 41.7071 23.1055 41.8438C22.9129 41.9673 22.7497 42.1365 22.6162 42.3514C22.4672 42.5911 22.387 42.832 22.3756 43.074C22.3558 43.311 22.3963 43.5441 22.4971 43.7734C22.5895 43.9976 22.738 44.2155 22.9427 44.427C23.1524 44.6302 23.4098 44.8221 23.7148 45.0026C24.1639 45.2682 24.5727 45.4309 24.9412 45.4906C25.3063 45.5371 25.632 45.498 25.9181 45.3733C26.2008 45.2353 26.4321 45.0216 26.612 44.7323C26.7712 44.4761 26.865 44.2319 26.8933 43.9999C26.9183 43.7547 26.8837 43.5307 26.7895 43.328C26.692 43.112 26.5493 42.9315 26.3613 42.7864L27.4634 41.0132C27.9682 41.3571 28.3307 41.7807 28.5509 42.2841C28.7711 42.7874 28.8484 43.325 28.7828 43.8967C28.7171 44.4684 28.5019 45.0477 28.1371 45.6346Z" fill="white"/>
<path d="M33.1947 38.6379C32.7514 39.1457 32.303 39.4207 31.8495 39.463C31.3885 39.499 30.8903 39.2945 30.3547 38.8494L27.1637 36.1977L26.2385 37.2575L24.9032 36.1479L25.8285 35.0881L24.1765 33.7153L25.4349 31.9609L27.2453 33.4654L28.2862 32.2731L29.6215 33.3827L28.5805 34.5749L31.466 36.9727C31.6545 37.1294 31.8213 37.1918 31.9663 37.1599C32.1113 37.128 32.2545 37.0311 32.3959 36.8692L32.9934 36.1848L34.3513 37.3132L33.1947 38.6379Z" fill="white"/>
<path d="M41.3179 31.4974C40.8224 31.8352 40.3319 32.0281 39.8464 32.076C39.3609 32.124 38.8955 32.0226 38.45 31.772C37.9988 31.5135 37.5803 31.1148 37.1943 30.5759L34.3506 26.6058L36.1416 25.3848L38.6533 28.8913C38.8917 29.2241 39.1338 29.4777 39.3796 29.6522C39.6336 29.8211 39.8953 29.908 40.1648 29.913C40.4368 29.9045 40.7189 29.8005 41.0113 29.6012C41.3119 29.3963 41.5167 29.1505 41.6257 28.8639C41.7347 28.5773 41.7637 28.2803 41.7129 27.973C41.6563 27.6577 41.5287 27.3614 41.33 27.0841L38.8098 23.5657L40.6008 22.3446L45.1644 28.7158L43.4465 29.887L42.539 28.772L42.4659 28.8218C42.5986 29.3446 42.5576 29.8443 42.3429 30.3209C42.1307 30.7841 41.789 31.1763 41.3179 31.4974Z" fill="white"/>
<path d="M50.3638 26.3582C49.875 26.5706 49.4118 26.7084 48.9741 26.7715C48.5325 26.8259 48.125 26.8125 47.7517 26.7313C47.3874 26.6462 47.0638 26.4957 46.7809 26.28C46.4939 26.0555 46.2673 25.7729 46.101 25.4325L48.0698 24.5769C48.1978 24.7859 48.3483 24.9375 48.5215 25.0316C48.6906 25.1168 48.8818 25.1554 49.095 25.1474C49.3134 25.1266 49.5447 25.0631 49.7891 24.9569C50.1602 24.7957 50.4061 24.6095 50.5267 24.3983C50.6563 24.1833 50.6687 23.9609 50.5638 23.7313C50.4792 23.5459 50.3694 23.4242 50.2345 23.3664C50.0956 23.2998 49.91 23.2852 49.6776 23.3227C49.4502 23.3474 49.1545 23.4124 48.7904 23.5177C48.1214 23.692 47.5425 23.7901 47.0535 23.8121C46.5646 23.8341 46.156 23.747 45.8278 23.551C45.4997 23.3549 45.2308 23.0273 45.0211 22.5681C44.8115 22.1089 44.7568 21.6564 44.857 21.2107C44.9663 20.761 45.2094 20.3432 45.5864 19.9571C45.9594 19.5622 46.4536 19.231 47.0691 18.9636C47.6575 18.7079 48.2113 18.5784 48.7304 18.575C49.2546 18.5589 49.7155 18.6655 50.1131 18.8949C50.5158 19.1115 50.8314 19.4347 51.0602 19.8645L49.0914 20.72C49.0027 20.5257 48.8824 20.3928 48.7304 20.3213C48.5834 20.237 48.4143 20.1993 48.2232 20.2083C48.0411 20.2133 47.8459 20.2611 47.6377 20.3516C47.3209 20.4892 47.0977 20.6656 46.9681 20.8807C46.8435 21.083 46.8336 21.2989 46.9384 21.5285C47.015 21.6963 47.1273 21.8116 47.2753 21.8743C47.4283 21.9242 47.6365 21.929 47.9001 21.8885C48.1637 21.8481 48.4976 21.7717 48.902 21.6595C49.5357 21.4794 50.0835 21.3842 50.5453 21.3741C51.0071 21.3639 51.3996 21.4632 51.7227 21.672C52.0418 21.872 52.3082 22.206 52.5219 22.6741C52.7436 23.1598 52.7974 23.6339 52.683 24.0963C52.5778 24.5548 52.3256 24.9765 51.9265 25.3616C51.5274 25.7467 51.0065 26.0789 50.3638 26.3582Z" fill="white"/>
<path d="M59.6427 16.5147L59.5158 15.8445L59.5504 14.9093L58.9503 15.6515L58.3985 16.0901L57.8196 15.4276L58.3568 14.9916L59.2036 14.5146L58.2407 14.3785L57.5793 14.1585L57.8774 13.3379L58.5534 13.5553L59.383 14.0251L59.0083 13.1636L58.8814 12.4934L59.773 12.3327L59.8999 13.003L59.8799 13.9356L60.4828 13.2076L61.0345 12.769L61.5988 13.4341L61.0763 13.8674L60.2267 14.3302L61.1924 14.4806L61.8537 14.7006L61.5556 15.5211L60.8797 15.3038L60.0473 14.8197L60.4075 15.6838L60.5344 16.354L59.6427 16.5147Z" fill="white"/>
<circle cx="70" cy="70" r="40" fill="white"/>
<path fill-rule="evenodd" clip-rule="evenodd" d="M71.7471 90.7695C63.5069 86.2777 56.0676 91.3856 55.201 75.6498C55.28 80.9177 54.7252 83.9792 52.9811 85.4383C52.9551 85.4122 57.5579 89.5903 60.2724 90.8643C62.6195 91.9661 64.9245 92.4008 67.1864 92.1682C68.7236 92.0104 70.2439 91.5441 71.7471 90.7695ZM75.9614 87.8499C68.7797 79.947 57.3396 75.4548 60.03 63.7122C54.7548 73.964 69.112 81.6657 74.8151 88.7664C75.2176 88.4604 75.5981 88.157 75.9614 87.8499ZM83.6916 76.382C83.5487 76.2208 83.4321 76.028 83.3495 75.8006C82.7521 74.1557 83.2267 73.6186 81.7373 72.4718C77.5153 69.2211 77.3342 71.1285 74.6709 71.0912C73.032 71.0687 70.8661 69.3973 70.7948 70.8851C70.5344 76.3071 74.7968 80.5638 77.7313 86.1664C79.6953 84.0478 81.308 81.3236 83.6916 76.382ZM77.8656 53.113C82.5812 56.9112 83.8063 58.9685 87.5256 63.7369C88.8007 65.3589 90.782 68.6633 92.9883 69.5215C93.6286 69.7707 93.7707 70.0081 93.6004 70.6223C93.3058 71.6847 92.6988 71.9962 92.6388 73.6112C92.5663 75.5635 92.6755 76.4744 90.7305 76.7594C88.6774 77.0598 88.0671 75.3457 86.8068 76.7664C85.8478 77.1195 84.7856 77.1501 84.0654 76.6971C81.6426 81.7098 79.9944 84.4599 77.9587 86.6157L77.9605 86.6135C79.1805 89.0343 80.1313 91.7117 80.3578 94.8411C79.4436 92.3134 77.9937 90.1528 76.2761 88.2031C76.0707 88.3767 75.1846 89.0738 75.1067 89.1383C76.618 91.1227 77.4115 93.0621 76.8627 95C75.3208 93.2032 73.7659 91.9506 72.2345 91.0467C72.3019 91.0102 68.8205 92.4752 67.2349 92.6381C64.8852 92.8796 62.4967 92.431 60.0699 91.2919C57.6189 90.141 55.1278 88.2849 52.5969 85.7221C52.2153 85.9691 51.7849 86.1541 51.3009 86.2813C51.5048 85.8072 51.6753 85.3516 51.8176 84.9119C50.2429 83.2331 48.6531 81.283 47.0478 79.0612C46.8655 78.809 47.2503 78.5336 47.4322 78.7854C48.9626 80.9036 50.477 82.7708 51.9758 84.3888C54.1608 76.6142 47.3106 73.835 52.6352 63.9864C50.4985 64.4985 49.3133 66.342 47.8019 67.7532C48.847 59.308 55.1531 56.6258 61.4818 53.3324C60.109 52.8022 58.3369 53.7161 56.9077 53.8083C60.4675 49.7123 67.9938 46.9804 72.9917 49.6246L73.1205 47.7913L72.8104 45C76.3235 47.0357 77.4744 48.0863 77.8656 53.113Z" fill="#F8553C"/>
<path d="M78.6654 60C78.6654 60.9205 77.9192 61.6667 76.9987 61.6667C76.0782 61.6667 75.332 60.9205 75.332 60C75.332 59.0796 76.0782 58.3334 76.9987 58.3334C77.9192 58.3334 78.6654 59.0796 78.6654 60Z" fill="white"/>
</svg>
