<svg width="40" height="40" viewBox="0 0 40 40" fill="none" xmlns="http://www.w3.org/2000/svg">
<g clip-path="url(#clip0_137_2966)">
<path d="M21.3431 19.7142C20.9193 19.8982 20.4622 19.9931 20.0002 19.9931C19.5382 19.9931 19.0811 19.8982 18.6574 19.7142L2.37164 12.1713C2.10719 12.0379 1.88495 11.8337 1.72968 11.5815C1.5744 11.3293 1.49219 11.0389 1.49219 10.7427C1.49219 10.4465 1.5744 10.1562 1.72968 9.90394C1.88495 9.65171 2.10719 9.44754 2.37164 9.31416L18.6574 1.71416C19.0811 1.53014 19.5382 1.43518 20.0002 1.43518C20.4622 1.43518 20.9193 1.53014 21.3431 1.71416L37.6288 9.25701C37.8932 9.3904 38.1155 9.59457 38.2708 9.8468C38.426 10.099 38.5082 10.3894 38.5082 10.6856C38.5082 10.9818 38.426 11.2721 38.2708 11.5244C38.1155 11.7766 37.8932 11.9808 37.6288 12.1142L21.3431 19.7142Z" stroke="#F8553C" stroke-width="2" stroke-linecap="round" stroke-linejoin="round"/>
<path d="M38.5725 20.9999L21.144 29.0284C20.7717 29.1982 20.3674 29.2861 19.9583 29.2861C19.5491 29.2861 19.1448 29.1982 18.7725 29.0284L1.42969 20.9999" stroke="#F8553C" stroke-width="2" stroke-linecap="round" stroke-linejoin="round"/>
<path d="M38.5725 30.2856L21.144 38.3142C20.7717 38.484 20.3674 38.5719 19.9583 38.5719C19.5491 38.5719 19.1448 38.484 18.7725 38.3142L1.42969 30.2856" stroke="#F8553C" stroke-width="2" stroke-linecap="round" stroke-linejoin="round"/>
</g>
<defs>
<clipPath id="clip0_137_2966">
<rect width="40" height="40" fill="white"/>
</clipPath>
</defs>
</svg>
