<svg width="25" height="25" viewBox="0 0 25 25" fill="none" xmlns="http://www.w3.org/2000/svg">
<path d="M18.999 2.75H5.99904C5.69933 2.75823 5.40577 2.83687 5.14208 2.97957C4.8784 3.12227 4.652 3.32502 4.48118 3.57143L1.23118 8.07143C0.989856 8.41245 0.869334 8.82431 0.888745 9.24163C0.908155 9.65896 1.06639 10.0578 1.33833 10.375L11.0883 21.6071C11.2552 21.8222 11.4691 21.9963 11.7136 22.116C11.9581 22.2358 12.2268 22.298 12.499 22.298C12.7713 22.298 13.0399 22.2358 13.2844 22.116C13.5289 21.9963 13.7428 21.8222 13.9098 21.6071L23.6598 10.375C23.9317 10.0578 24.0899 9.65896 24.1093 9.24163C24.1287 8.82431 24.0082 8.41245 23.7669 8.07143L20.5169 3.57143C20.3461 3.32502 20.1197 3.12227 19.856 2.97957C19.5923 2.83687 19.2987 2.75823 18.999 2.75V2.75Z" stroke="white" stroke-width="1.5" stroke-linecap="round" stroke-linejoin="round"/>
<path d="M11.5681 2.73218L7.21094 9.48218L12.4967 22.25" stroke="white" stroke-width="1.5" stroke-linecap="round" stroke-linejoin="round"/>
<path d="M13.4821 2.73218L17.8214 9.48218L12.5 22.25" stroke="white" stroke-width="1.5" stroke-linecap="round" stroke-linejoin="round"/>
<path d="M0.929688 9.48218H24.0725" stroke="white" stroke-width="1.5" stroke-linecap="round" stroke-linejoin="round"/>
</svg>
