<svg width="40" height="40" viewBox="0 0 40 40" fill="none" xmlns="http://www.w3.org/2000/svg">
<path d="M12.8563 37.1429C19.1681 37.1429 24.2849 32.0262 24.2849 25.7143C24.2849 19.4025 19.1681 14.2858 12.8563 14.2858C6.54448 14.2858 1.42773 19.4025 1.42773 25.7143C1.42773 32.0262 6.54448 37.1429 12.8563 37.1429Z" stroke="#70737A" stroke-width="1.5" stroke-linecap="round" stroke-linejoin="round"/>
<path d="M27.1415 37.1429C33.4533 37.1429 38.57 32.0262 38.57 25.7143C38.57 19.4025 33.4533 14.2858 27.1415 14.2858C20.8296 14.2858 15.7129 19.4025 15.7129 25.7143C15.7129 32.0262 20.8296 37.1429 27.1415 37.1429Z" stroke="#70737A" stroke-width="1.5" stroke-linecap="round" stroke-linejoin="round"/>
<path d="M19.9989 25.7143C26.3107 25.7143 31.4275 20.5976 31.4275 14.2857C31.4275 7.97392 26.3107 2.85718 19.9989 2.85718C13.6871 2.85718 8.57031 7.97392 8.57031 14.2857C8.57031 20.5976 13.6871 25.7143 19.9989 25.7143Z" stroke="#70737A" stroke-width="1.5" stroke-linecap="round" stroke-linejoin="round"/>
</svg>
