<svg width="16" height="16" viewBox="0 0 16 16" fill="none" xmlns="http://www.w3.org/2000/svg">
<g clip-path="url(#clip0_69_2023)">
<path d="M12.6451 9.91174C12.3176 9.57067 11.9225 9.38832 11.5037 9.38832C11.0884 9.38832 10.6899 9.5673 10.3488 9.90837L9.28172 10.9721C9.19392 10.9248 9.10612 10.8809 9.0217 10.837C8.90013 10.7762 8.78532 10.7188 8.68739 10.658C7.68782 10.0232 6.77943 9.19584 5.90819 8.12536C5.48608 7.59181 5.20242 7.14268 4.99643 6.68679C5.27333 6.43353 5.52998 6.17013 5.77987 5.91686C5.87442 5.82231 5.96898 5.72437 6.06353 5.62982C6.77268 4.92067 6.77268 4.00215 6.06353 3.293L5.14163 2.3711C5.03695 2.26642 4.92889 2.15836 4.82758 2.0503C4.62497 1.84093 4.41222 1.62481 4.19272 1.42219C3.86516 1.09801 3.47344 0.925787 3.06146 0.925787C2.64947 0.925787 2.251 1.09801 1.91331 1.42219C1.90993 1.42557 1.90993 1.42557 1.90655 1.42895L0.758404 2.58723C0.326159 3.01947 0.0796448 3.54627 0.0256142 4.15749C-0.0554316 5.14355 0.234983 6.06207 0.457859 6.66316C1.00492 8.13886 1.82213 9.50651 3.04119 10.9721C4.52028 12.7382 6.29991 14.1329 8.33281 15.1156C9.1095 15.4836 10.1462 15.9193 11.3045 15.9936C11.3754 15.9969 11.4497 16.0003 11.5172 16.0003C12.2973 16.0003 12.9524 15.72 13.4657 15.1628C13.4691 15.1561 13.4758 15.1527 13.4792 15.146C13.6548 14.9332 13.8574 14.7407 14.0702 14.5347C14.2154 14.3963 14.364 14.2511 14.5092 14.0991C14.8435 13.7513 15.0191 13.3461 15.0191 12.9307C15.0191 12.512 14.8401 12.1101 14.499 11.7724L12.6451 9.91174ZM13.8541 13.4676C13.8507 13.4676 13.8507 13.471 13.8541 13.4676C13.7224 13.6095 13.5873 13.7378 13.4421 13.8796C13.2226 14.089 12.9997 14.3085 12.7903 14.555C12.4493 14.9197 12.0474 15.0919 11.5206 15.0919C11.47 15.0919 11.4159 15.0919 11.3653 15.0885C10.3623 15.0244 9.43031 14.6327 8.73129 14.2983C6.81996 13.3731 5.14163 12.0595 3.74697 10.3946C2.59544 9.00673 1.82551 7.72351 1.31559 6.34573C1.00154 5.50488 0.886726 4.84976 0.93738 4.23178C0.971149 3.83668 1.12311 3.50912 1.40339 3.22884L2.55492 2.07731C2.72039 1.92198 2.89599 1.83755 3.06821 1.83755C3.28096 1.83755 3.45318 1.96588 3.56124 2.07394C3.56462 2.07731 3.56799 2.08069 3.57137 2.08407C3.77736 2.27655 3.97322 2.47579 4.17921 2.68853C4.2839 2.79659 4.39196 2.90466 4.50002 3.01609L5.42192 3.93799C5.77987 4.29594 5.77987 4.62688 5.42192 4.98483C5.32399 5.08276 5.22943 5.18069 5.1315 5.27525C4.84784 5.56566 4.57769 5.83581 4.2839 6.09921C4.27714 6.10597 4.27039 6.10934 4.26701 6.1161C3.9766 6.40651 4.03063 6.69017 4.09141 6.88265C4.09479 6.89279 4.09817 6.90292 4.10154 6.91305C4.3413 7.49388 4.679 8.04094 5.19229 8.69268L5.19566 8.69606C6.12769 9.8442 7.11037 10.7391 8.19436 11.4246C8.33281 11.5124 8.47464 11.5833 8.60972 11.6509C8.73129 11.7116 8.8461 11.769 8.94403 11.8298C8.95754 11.8366 8.97105 11.8467 8.98456 11.8535C9.09937 11.9109 9.20743 11.9379 9.31887 11.9379C9.59915 11.9379 9.77475 11.7623 9.83216 11.7049L10.9871 10.55C11.1019 10.4352 11.2842 10.2967 11.497 10.2967C11.7063 10.2967 11.8786 10.4284 11.9833 10.5432C11.9866 10.5466 11.9866 10.5466 11.99 10.55L13.8507 12.4107C14.1985 12.7551 14.1985 13.1097 13.8541 13.4676Z" fill="#FFFFFF"/>
<path d="M8.64673 3.80593C9.53148 3.95451 10.3352 4.37325 10.9768 5.01486C11.6184 5.65647 12.0338 6.46018 12.1857 7.34493C12.2229 7.56781 12.4154 7.72314 12.6349 7.72314C12.6619 7.72314 12.6855 7.71977 12.7125 7.71639C12.9624 7.67587 13.1279 7.43948 13.0874 7.18959C12.905 6.11911 12.3985 5.14318 11.6252 4.36987C10.8519 3.59656 9.87593 3.09002 8.80545 2.90767C8.55556 2.86715 8.32255 3.03262 8.27865 3.27913C8.23475 3.52565 8.39684 3.76541 8.64673 3.80593Z" fill="#FFFFFF"/>
<path d="M15.9809 7.05794C15.6804 5.2952 14.8496 3.69116 13.5732 2.41469C12.2967 1.13822 10.6927 0.307501 8.92991 0.0069559C8.6834 -0.0369439 8.45039 0.131902 8.40649 0.378416C8.36597 0.628307 8.53144 0.861314 8.78133 0.905214C10.355 1.17199 11.7902 1.91829 12.9315 3.0563C14.0729 4.1977 14.8159 5.63289 15.0826 7.20653C15.1198 7.4294 15.3123 7.58474 15.5318 7.58474C15.5588 7.58474 15.5824 7.58136 15.6094 7.57799C15.856 7.54084 16.0248 7.30446 15.9809 7.05794Z" fill="#FFFFFF"/>
</g>
<defs>
<clipPath id="clip0_69_2023">
<rect width="16" height="16" fill="white"/>
</clipPath>
</defs>
</svg>
