<svg width="25" height="25" viewBox="0 0 25 25" fill="none" xmlns="http://www.w3.org/2000/svg">
<path d="M20.5363 8.92866C20.5363 13.3751 12.5006 24.1072 12.5006 24.1072C12.5006 24.1072 4.46484 13.3751 4.46484 8.92866C4.46484 6.79746 5.31146 4.75354 6.81845 3.24655C8.32544 1.73956 10.3694 0.892944 12.5006 0.892944C14.6318 0.892944 16.6757 1.73956 18.1827 3.24655C19.6897 4.75354 20.5363 6.79746 20.5363 8.92866V8.92866Z" stroke="white" stroke-width="1.5" stroke-linecap="round" stroke-linejoin="round"/>
<path d="M12.5008 11.6071C13.9802 11.6071 15.1794 10.4079 15.1794 8.92857C15.1794 7.44924 13.9802 6.25 12.5008 6.25C11.0215 6.25 9.82227 7.44924 9.82227 8.92857C9.82227 10.4079 11.0215 11.6071 12.5008 11.6071Z" stroke="white" stroke-width="1.5" stroke-linecap="round" stroke-linejoin="round"/>
</svg>
