<svg width="50" height="50" viewBox="0 0 50 50" fill="none" xmlns="http://www.w3.org/2000/svg">
<path d="M30.3566 17.8572C32.329 17.8572 33.928 16.2582 33.928 14.2858C33.928 12.3133 32.329 10.7144 30.3566 10.7144C28.3841 10.7144 26.7852 12.3133 26.7852 14.2858C26.7852 16.2582 28.3841 17.8572 30.3566 17.8572Z" stroke="#175caa" stroke-width="2" stroke-linecap="round" stroke-linejoin="round"/>
<path d="M16.0709 35.714C17.0571 35.714 17.8566 34.9145 17.8566 33.9283C17.8566 32.9421 17.0571 32.1426 16.0709 32.1426C15.0846 32.1426 14.2852 32.9421 14.2852 33.9283C14.2852 34.9145 15.0846 35.714 16.0709 35.714Z" stroke="#175caa" stroke-width="2" stroke-linecap="round" stroke-linejoin="round"/>
<path d="M16.0714 23.2141C18.0439 23.2141 19.6429 21.6152 19.6429 19.6427C19.6429 17.6703 18.0439 16.0713 16.0714 16.0713C14.099 16.0713 12.5 17.6703 12.5 19.6427C12.5 21.6152 14.099 23.2141 16.0714 23.2141Z" stroke="#175caa" stroke-width="2" stroke-linecap="round" stroke-linejoin="round"/>
<path d="M34.0003 43.8571C33.9605 43.1643 33.7198 42.4982 33.3075 41.94C32.8952 41.3819 32.3293 40.9559 31.6789 40.7142C30.0636 40.1833 28.6906 39.0936 27.8068 37.6409C26.9231 36.1883 26.5866 34.468 26.8577 32.7894C27.1289 31.1108 27.9899 29.584 29.2861 28.4835C30.5823 27.383 32.2285 26.781 33.9289 26.7857H40.6075C41.7529 26.7888 42.8824 26.5165 43.9005 25.9916C44.9186 25.4667 45.7956 24.7046 46.4574 23.7697C47.1192 22.8348 47.5464 21.7544 47.7031 20.6197C47.8597 19.485 47.7412 18.3292 47.3575 17.2499C45.937 13.2391 43.4415 9.69584 40.1436 7.00725C36.8457 4.31865 32.8723 2.58816 28.6575 2.00484C24.4428 1.42152 20.1488 2.00781 16.2446 3.69965C12.3405 5.39149 8.97645 8.1238 6.52002 11.5981C4.06359 15.0723 2.60928 19.1549 2.31597 23.3997C2.02266 27.6445 2.90165 31.8883 4.85689 35.6674C6.81213 39.4465 9.76842 42.6156 13.4027 44.8283C17.0371 47.041 21.2097 48.2123 25.4646 48.2142C27.5659 48.2201 29.6577 47.9316 31.6789 47.3571C32.4213 47.1491 33.0641 46.6811 33.4903 46.0387C33.9164 45.3962 34.0974 44.6219 34.0003 43.8571V43.8571Z" stroke="#175caa" stroke-width="2" stroke-linecap="round" stroke-linejoin="round"/>
</svg>
