<svg width="40" height="40" viewBox="0 0 40 40" fill="none" xmlns="http://www.w3.org/2000/svg">
<g clip-path="url(#clip0_98_1748)">
<path d="M9.28488 17.1429C13.6243 17.1429 17.142 13.6251 17.142 9.28573C17.142 4.94635 13.6243 1.42859 9.28488 1.42859C4.9455 1.42859 1.42773 4.94635 1.42773 9.28573C1.42773 13.6251 4.9455 17.1429 9.28488 17.1429Z" stroke="#70737A" stroke-width="1.5" stroke-linecap="round" stroke-linejoin="round"/>
<path d="M30.7126 17.1429C35.052 17.1429 38.5698 13.6251 38.5698 9.28573C38.5698 4.94635 35.052 1.42859 30.7126 1.42859C26.3732 1.42859 22.8555 4.94635 22.8555 9.28573C22.8555 13.6251 26.3732 17.1429 30.7126 17.1429Z" stroke="#70737A" stroke-width="1.5" stroke-linecap="round" stroke-linejoin="round"/>
<path d="M9.28488 38.5715C13.6243 38.5715 17.142 35.0537 17.142 30.7143C17.142 26.3749 13.6243 22.8572 9.28488 22.8572C4.9455 22.8572 1.42773 26.3749 1.42773 30.7143C1.42773 35.0537 4.9455 38.5715 9.28488 38.5715Z" stroke="#70737A" stroke-width="1.5" stroke-linecap="round" stroke-linejoin="round"/>
<path d="M30.7126 38.5715C35.052 38.5715 38.5698 35.0537 38.5698 30.7143C38.5698 26.3749 35.052 22.8572 30.7126 22.8572C26.3732 22.8572 22.8555 26.3749 22.8555 30.7143C22.8555 35.0537 26.3732 38.5715 30.7126 38.5715Z" stroke="#70737A" stroke-width="1.5" stroke-linecap="round" stroke-linejoin="round"/>
</g>
<defs>
<clipPath id="clip0_98_1748">
<rect width="40" height="40" fill="white"/>
</clipPath>
</defs>
</svg>
