<svg width="43" height="43" viewBox="0 0 43 43" fill="none" xmlns="http://www.w3.org/2000/svg">
<path d="M26.1172 29.1923C26.9332 29.1923 27.7159 28.8681 28.2929 28.2911C28.8699 27.714 29.1941 26.9314 29.1941 26.1154" stroke="#F8553C" stroke-width="2" stroke-linecap="round" stroke-linejoin="round"/>
<path d="M13.8086 29.1923H18.424" stroke="#F8553C" stroke-width="2" stroke-linecap="round" stroke-linejoin="round"/>
<path d="M29.1914 13.8077V18.4231" stroke="#F8553C" stroke-width="2" stroke-linecap="round" stroke-linejoin="round"/>
<path d="M16.8855 13.8077C16.0695 13.8077 15.2868 14.1319 14.7098 14.7089C14.1328 15.286 13.8086 16.0686 13.8086 16.8847" stroke="#F8553C" stroke-width="2" stroke-linecap="round" stroke-linejoin="round"/>
<path d="M1.5 4.57692C1.5 3.76087 1.82417 2.97824 2.40121 2.40121C2.97824 1.82417 3.76087 1.5 4.57692 1.5H26.1154C26.9314 1.5 27.7141 1.82417 28.2911 2.40121C28.8681 2.97824 29.1923 3.76087 29.1923 4.57692V13.8077H38.4231C39.2391 13.8077 40.0218 14.1319 40.5988 14.7089C41.1758 15.2859 41.5 16.0686 41.5 16.8846V38.4231C41.5 39.2391 41.1758 40.0218 40.5988 40.5988C40.0218 41.1758 39.2391 41.5 38.4231 41.5H16.8846C16.0686 41.5 15.2859 41.1758 14.7089 40.5988C14.1319 40.0218 13.8077 39.2391 13.8077 38.4231V29.1923H4.57692C3.76087 29.1923 2.97824 28.8681 2.40121 28.2911C1.82417 27.7141 1.5 26.9314 1.5 26.1154V4.57692Z" stroke="#F8553C" stroke-width="2" stroke-linecap="round" stroke-linejoin="round"/>
<path d="M24.5781 13.8077H29.1935" stroke="#F8553C" stroke-width="2" stroke-linecap="round" stroke-linejoin="round"/>
<path d="M13.8086 24.5769V29.1923" stroke="#F8553C" stroke-width="2" stroke-linecap="round" stroke-linejoin="round"/>
</svg>
