<svg width="40" height="41" viewBox="0 0 40 41" fill="none" xmlns="http://www.w3.org/2000/svg">
<path d="M24.2849 14.7861C25.8628 14.7861 27.142 13.5069 27.142 11.9289C27.142 10.351 25.8628 9.07178 24.2849 9.07178C22.7069 9.07178 21.4277 10.351 21.4277 11.9289C21.4277 13.5069 22.7069 14.7861 24.2849 14.7861Z" stroke="#175caa" stroke-width="1.5" stroke-linecap="round" stroke-linejoin="round"/>
<path d="M12.8563 29.0715C13.6453 29.0715 14.2849 28.4319 14.2849 27.6429C14.2849 26.8539 13.6453 26.2144 12.8563 26.2144C12.0673 26.2144 11.4277 26.8539 11.4277 27.6429C11.4277 28.4319 12.0673 29.0715 12.8563 29.0715Z" stroke="#175caa" stroke-width="1.5" stroke-linecap="round" stroke-linejoin="round"/>
<path d="M12.8571 19.0717C14.4351 19.0717 15.7143 17.7925 15.7143 16.2146C15.7143 14.6366 14.4351 13.3574 12.8571 13.3574C11.2792 13.3574 10 14.6366 10 16.2146C10 17.7925 11.2792 19.0717 12.8571 19.0717Z" stroke="#175caa" stroke-width="1.5" stroke-linecap="round" stroke-linejoin="round"/>
<path d="M27.2003 35.5859C27.1684 35.0317 26.9758 34.4987 26.646 34.0522C26.3162 33.6057 25.8635 33.265 25.3431 33.0716C24.0508 32.6468 22.9525 31.775 22.2455 30.6129C21.5385 29.4508 21.2692 28.0746 21.4862 26.7317C21.7031 25.3888 22.392 24.1674 23.4289 23.287C24.4658 22.4066 25.7828 21.925 27.1431 21.9287H32.486C33.4023 21.9313 34.3059 21.7134 35.1204 21.2935C35.9349 20.8736 36.6365 20.2639 37.1659 19.516C37.6954 18.768 38.0372 17.9037 38.1625 16.9959C38.2878 16.0882 38.193 15.1636 37.886 14.3001C36.7496 11.0915 34.7532 8.25687 32.1149 6.10599C29.4766 3.95512 26.2979 2.57072 22.926 2.10407C19.5542 1.63741 16.119 2.10644 12.9957 3.45991C9.87239 4.81339 7.18116 6.99924 5.21601 9.77865C3.25087 12.5581 2.08742 15.8241 1.85278 19.22C1.61813 22.6158 2.32132 26.0109 3.88551 29.0341C5.44971 32.0574 7.81473 34.5926 10.7222 36.3628C13.6297 38.133 16.9677 39.07 20.3717 39.0716C22.0527 39.0763 23.7261 38.8455 25.3431 38.3859C25.937 38.2195 26.4513 37.8451 26.7922 37.3311C27.1331 36.8171 27.278 36.1977 27.2003 35.5859V35.5859Z" stroke="#175caa" stroke-width="1.5" stroke-linecap="round" stroke-linejoin="round"/>
</svg>
