<svg width="50" height="50" viewBox="0 0 50 50" fill="none" xmlns="http://www.w3.org/2000/svg">
<path d="M30.3566 17.8572C32.329 17.8572 33.928 16.2582 33.928 14.2858C33.928 12.3133 32.329 10.7144 30.3566 10.7144C28.3841 10.7144 26.7852 12.3133 26.7852 14.2858C26.7852 16.2582 28.3841 17.8572 30.3566 17.8572Z" stroke="white" stroke-width="2" stroke-linecap="round" stroke-linejoin="round"/>
<path d="M16.0709 35.714C17.0571 35.714 17.8566 34.9145 17.8566 33.9283C17.8566 32.9421 17.0571 32.1426 16.0709 32.1426C15.0846 32.1426 14.2852 32.9421 14.2852 33.9283C14.2852 34.9145 15.0846 35.714 16.0709 35.714Z" stroke="white" stroke-width="2" stroke-linecap="round" stroke-linejoin="round"/>
<path d="M16.0714 23.2141C18.0439 23.2141 19.6429 21.6152 19.6429 19.6427C19.6429 17.6703 18.0439 16.0713 16.0714 16.0713C14.099 16.0713 12.5 17.6703 12.5 19.6427C12.5 21.6152 14.099 23.2141 16.0714 23.2141Z" stroke="white" stroke-width="2" stroke-linecap="round" stroke-linejoin="round"/>
<path d="M34.0013 43.8571C33.9615 43.1643 33.7207 42.4982 33.3085 41.94C32.8962 41.3819 32.3303 40.9559 31.6799 40.7142C30.0645 40.1833 28.6916 39.0936 27.8078 37.6409C26.9241 36.1883 26.5875 34.468 26.8587 32.7894C27.1299 31.1108 27.9909 29.584 29.2871 28.4835C30.5833 27.383 32.2295 26.781 33.9299 26.7857H40.6084C41.7539 26.7888 42.8833 26.5165 43.9015 25.9916C44.9196 25.4667 45.7965 24.7046 46.4584 23.7697C47.1202 22.8348 47.5474 21.7544 47.7041 20.6197C47.8607 19.485 47.7422 18.3292 47.3584 17.2499C45.9379 13.2391 43.4424 9.69584 40.1446 7.00725C36.8467 4.31865 32.8733 2.58816 28.6585 2.00484C24.4438 1.42152 20.1497 2.00781 16.2456 3.69965C12.3415 5.39149 8.97742 8.1238 6.52099 11.5981C4.06456 15.0723 2.61025 19.1549 2.31695 23.3997C2.02364 27.6445 2.90263 31.8883 4.85787 35.6674C6.81311 39.4465 9.76939 42.6156 13.4037 44.8283C17.0381 47.041 21.2106 48.2123 25.4656 48.2142C27.5669 48.2201 29.6586 47.9316 31.6799 47.3571C32.4222 47.1491 33.0651 46.6811 33.4913 46.0387C33.9174 45.3962 34.0984 44.6219 34.0013 43.8571V43.8571Z" stroke="white" stroke-width="2" stroke-linecap="round" stroke-linejoin="round"/>
</svg>
