<svg width="40" height="40" viewBox="0 0 40 40" fill="none" xmlns="http://www.w3.org/2000/svg">
<path d="M20 28.6285V31.5143" stroke="#70737A" stroke-width="1.5" stroke-linecap="round" stroke-linejoin="round"/>
<path d="M20 14.3143V17" stroke="#70737A" stroke-width="1.5" stroke-linecap="round" stroke-linejoin="round"/>
<path d="M20.0003 38.5428C30.0003 38.5428 37.1431 35 37.1431 27.1143C37.1431 18.5428 32.8574 12.8285 24.286 8.54283L27.6574 4.19998C27.8287 3.91504 27.9216 3.58988 27.9267 3.25746C27.9318 2.92504 27.849 2.59718 27.6865 2.30711C27.5241 2.01704 27.2878 1.77507 27.0017 1.60573C26.7156 1.43639 26.3899 1.34569 26.0574 1.34283H13.9431C13.6107 1.34569 13.2849 1.43639 12.9988 1.60573C12.7127 1.77507 12.4765 2.01704 12.314 2.30711C12.1516 2.59718 12.0687 2.92504 12.0738 3.25746C12.079 3.58988 12.1719 3.91504 12.3431 4.19998L15.7146 8.57141C7.14314 12.8857 2.85742 18.6 2.85742 27.1714C2.85742 35 10.0003 38.5428 20.0003 38.5428Z" stroke="#70737A" stroke-width="1.5" stroke-linecap="round" stroke-linejoin="round"/>
<path d="M17.1425 27.3143C17.4911 27.7281 17.9299 28.0565 18.4251 28.2745C18.9204 28.4924 19.459 28.594 19.9996 28.5714C20.8259 28.6277 21.6419 28.3615 22.2759 27.8287C22.91 27.2958 23.3128 26.5379 23.3996 25.7143C23.3128 24.8906 22.91 24.1327 22.2759 23.5999C21.6419 23.067 20.8259 22.8008 19.9996 22.8571C19.1733 22.9134 18.3573 22.6472 17.7233 22.1144C17.0892 21.5815 16.6864 20.8236 16.5996 20C16.6795 19.1734 17.0803 18.4112 17.716 17.8769C18.3518 17.3427 19.1717 17.0791 19.9996 17.1428C20.5307 17.1103 21.0624 17.196 21.5564 17.3936C22.0505 17.5912 22.4946 17.8959 22.8568 18.2857" stroke="#70737A" stroke-width="1.5" stroke-linecap="round" stroke-linejoin="round"/>
</svg>
