<svg width="24" height="24" viewBox="0 0 24 24" fill="none" xmlns="http://www.w3.org/2000/svg">
<mask id="path-1-inside-1_69_2999" fill="white">
<path d="M21.8906 3.5625H2.10938C0.943922 3.5625 0 4.51228 0 5.67188V18.3281C0 19.4946 0.950859 20.4375 2.10938 20.4375H21.8906C23.0463 20.4375 24 19.4986 24 18.3281V5.67188C24 4.51434 23.0598 3.5625 21.8906 3.5625ZM21.5952 4.96875C21.1642 5.39742 13.7476 12.775 13.4916 13.0297C13.0931 13.4281 12.5634 13.6475 12 13.6475C11.4366 13.6475 10.9069 13.4281 10.5071 13.0284C10.3349 12.8571 3.00014 5.56097 2.40478 4.96875H21.5952ZM1.40625 18.0419V5.95898L7.48303 12.0037L1.40625 18.0419ZM2.40567 19.0312L8.48006 12.9955L9.51408 14.0241C10.1781 14.6881 11.061 15.0538 12 15.0538C12.939 15.0538 13.8219 14.6881 14.4846 14.0254L15.5199 12.9955L21.5943 19.0312H2.40567ZM22.5938 18.0419L16.517 12.0037L22.5938 5.95898V18.0419Z"/>
</mask>
<path d="M21.5952 4.96875L23.0056 6.38674L26.4419 2.96875H21.5952V4.96875ZM13.4916 13.0297L12.0811 11.6117L12.0773 11.6155L13.4916 13.0297ZM10.5071 13.0284L11.9213 11.6141L11.9177 11.6105L10.5071 13.0284ZM2.40478 4.96875V2.96875H-2.44176L0.994313 6.3867L2.40478 4.96875ZM1.40625 18.0419H-0.59375V22.8486L2.81595 19.4606L1.40625 18.0419ZM1.40625 5.95898L2.81672 4.54104L-0.59375 1.14854V5.95898H1.40625ZM7.48303 12.0037L8.89273 13.4225L10.3197 12.0045L8.8935 10.5858L7.48303 12.0037ZM2.40567 19.0312L0.995976 17.6125L-2.44462 21.0312H2.40567V19.0312ZM8.48006 12.9955L9.89054 11.5775L8.48084 10.1753L7.07037 11.5768L8.48006 12.9955ZM9.51408 14.0241L10.9283 12.6098L10.9246 12.6061L9.51408 14.0241ZM14.4846 14.0254L13.0741 12.6074L13.0704 12.6112L14.4846 14.0254ZM15.5199 12.9955L16.9296 11.5768L15.5192 10.1753L14.1095 11.5776L15.5199 12.9955ZM21.5943 19.0312V21.0312H26.4446L23.004 17.6125L21.5943 19.0312ZM22.5938 18.0419L21.1841 19.4606L24.5938 22.8486V18.0419H22.5938ZM16.517 12.0037L15.1065 10.5858L13.6803 12.0045L15.1073 13.4225L16.517 12.0037ZM22.5938 5.95898H24.5938V1.14854L21.1833 4.54104L22.5938 5.95898ZM21.8906 3.5625V1.5625H2.10938V3.5625V5.5625H21.8906V3.5625ZM2.10938 3.5625V1.5625C-0.164261 1.5625 -2 3.41133 -2 5.67188H0H2C2 5.64516 2.009 5.61946 2.03321 5.5952C2.05689 5.57148 2.0816 5.5625 2.10938 5.5625V3.5625ZM0 5.67188H-2V18.3281H0H2V5.67188H0ZM0 18.3281H-2C-2 20.6041 -0.14879 22.4375 2.10938 22.4375V20.4375V18.4375C2.08288 18.4375 2.057 18.4285 2.03261 18.4042C2.00896 18.3806 2 18.3561 2 18.3281H0ZM2.10938 20.4375V22.4375H21.8906V20.4375V18.4375H2.10938V20.4375ZM21.8906 20.4375V22.4375C24.1418 22.4375 26 20.6123 26 18.3281H24H22C22 18.3467 21.9967 18.3589 21.9925 18.3686C21.9878 18.3797 21.9798 18.3922 21.9679 18.4041C21.9437 18.4282 21.9173 18.4375 21.8906 18.4375V20.4375ZM24 18.3281H26V5.67188H24H22V18.3281H24ZM24 5.67188H26C26 3.41698 24.1716 1.5625 21.8906 1.5625V3.5625V5.5625C21.9092 5.5625 21.9215 5.56584 21.9313 5.57002C21.9425 5.5748 21.9551 5.58279 21.9669 5.59462C21.9906 5.61849 22 5.64447 22 5.67188H24ZM21.5952 4.96875L20.1848 3.55076C19.7539 3.97937 12.337 11.3572 12.0811 11.6117L13.4916 13.0297L14.902 14.4477C15.1583 14.1928 22.5746 6.81547 23.0056 6.38674L21.5952 4.96875ZM13.4916 13.0297L12.0773 11.6155C12.0627 11.6301 12.0508 11.6367 12.0423 11.6403C12.0338 11.6438 12.0207 11.6475 12 11.6475V13.6475V15.6475C13.0938 15.6475 14.1322 15.2175 14.9058 14.4439L13.4916 13.0297ZM12 13.6475V11.6475C11.9795 11.6475 11.9666 11.6438 11.9581 11.6403C11.9497 11.6368 11.9371 11.63 11.9213 11.6141L10.5071 13.0284L9.09299 14.4427C9.86708 15.2167 10.9051 15.6475 12 15.6475V13.6475ZM10.5071 13.0284L11.9177 11.6105C11.7454 11.4391 4.41057 4.14298 3.81525 3.5508L2.40478 4.96875L0.994313 6.3867C1.58971 6.97896 8.92441 14.275 9.09658 14.4463L10.5071 13.0284ZM2.40478 4.96875V6.96875H21.5952V4.96875V2.96875H2.40478V4.96875ZM1.40625 18.0419H3.40625V5.95898H1.40625H-0.59375V18.0419H1.40625ZM1.40625 5.95898L-0.00422332 7.37693L6.07256 13.4217L7.48303 12.0037L8.8935 10.5858L2.81672 4.54104L1.40625 5.95898ZM7.48303 12.0037L6.07333 10.585L-0.00344772 16.6232L1.40625 18.0419L2.81595 19.4606L8.89273 13.4225L7.48303 12.0037ZM2.40567 19.0312L3.81537 20.45L9.88976 14.4142L8.48006 12.9955L7.07037 11.5768L0.995976 17.6125L2.40567 19.0312ZM8.48006 12.9955L7.06958 14.4134L8.1036 15.442L9.51408 14.0241L10.9246 12.6061L9.89054 11.5775L8.48006 12.9955ZM9.51408 14.0241L8.09986 15.4383C9.13898 16.4774 10.5305 17.0538 12 17.0538V15.0538V13.0538C11.5914 13.0538 11.2172 12.8988 10.9283 12.6098L9.51408 14.0241ZM12 15.0538V17.0538C13.4689 17.0538 14.8606 16.4778 15.8988 15.4396L14.4846 14.0254L13.0704 12.6112C12.7832 12.8984 12.4092 13.0538 12 13.0538V15.0538ZM14.4846 14.0254L15.8951 15.4433L16.9304 14.4134L15.5199 12.9955L14.1095 11.5776L13.0741 12.6074L14.4846 14.0254ZM15.5199 12.9955L14.1102 14.4142L20.1846 20.45L21.5943 19.0312L23.004 17.6125L16.9296 11.5768L15.5199 12.9955ZM21.5943 19.0312V17.0312H2.40567V19.0312V21.0312H21.5943V19.0312ZM22.5938 18.0419L24.0034 16.6232L17.9267 10.585L16.517 12.0037L15.1073 13.4225L21.1841 19.4606L22.5938 18.0419ZM16.517 12.0037L17.9274 13.4217L24.0042 7.37693L22.5938 5.95898L21.1833 4.54104L15.1065 10.5858L16.517 12.0037ZM22.5938 5.95898H20.5938V18.0419H22.5938H24.5938V5.95898H22.5938Z" fill="#061619" mask="url(#path-1-inside-1_69_2999)"/>
</svg>
