<svg width="20" height="20" viewBox="0 0 20 20" fill="none" xmlns="http://www.w3.org/2000/svg">
<path fill-rule="evenodd" clip-rule="evenodd" d="M16.5002 8.51866C16.6085 8.99533 16.666 9.49116 16.666 10.0003C16.666 13.6795 13.6785 16.667 9.99935 16.667C6.32018 16.667 3.33268 13.6795 3.33268 10.0003C3.33268 6.32116 6.32018 3.33366 9.99935 3.33366C10.7685 3.33366 11.5068 3.46366 12.1943 3.70366C12.6285 3.85533 13.1035 3.62616 13.2552 3.19199C13.4068 2.75699 13.1777 2.28199 12.7435 2.13033C11.8835 1.83033 10.9602 1.66699 9.99935 1.66699C5.40018 1.66699 1.66602 5.40116 1.66602 10.0003C1.66602 14.5995 5.40018 18.3337 9.99935 18.3337C14.5985 18.3337 18.3327 14.5995 18.3327 10.0003C18.3327 9.36449 18.261 8.74449 18.126 8.14866C18.0235 7.70033 17.5768 7.41949 17.1285 7.52116C16.6802 7.62283 16.3985 8.06949 16.5002 8.51866ZM9.16602 10.4887L16.0768 3.57783C16.4018 3.25283 16.9302 3.25283 17.2552 3.57783C17.5802 3.90283 17.5802 4.43116 17.2552 4.75616L9.75518 12.2562C9.43018 12.582 8.90185 12.582 8.57685 12.2562L6.07685 9.75616C5.75185 9.43116 5.75185 8.90283 6.07685 8.57783C6.40185 8.25283 6.93018 8.25283 7.25518 8.57783L9.16602 10.4887Z" fill="#F8553C"/>
</svg>
