<svg width="40" height="40" viewBox="0 0 40 40" fill="none" xmlns="http://www.w3.org/2000/svg">
<g clip-path="url(#clip0_137_3007)">
<path d="M25.1697 34.4857C23.879 35.7764 22.3467 36.8003 20.6603 37.4988C18.9739 38.1973 17.1664 38.5569 15.3411 38.5569C11.6547 38.5569 8.11923 37.0924 5.51253 34.4857C2.90583 31.879 1.44141 28.3436 1.44141 24.6572C1.44141 20.9707 2.90583 17.4353 5.51253 14.8286L18.9125 1.42859L25.1697 7.68573L12.884 20C12.0942 20.971 11.6926 22.2003 11.7568 23.4503C11.8209 24.7002 12.3463 25.8819 13.2313 26.7669C14.1163 27.6519 15.2981 28.1773 16.548 28.2415C17.7979 28.3056 19.0273 27.904 19.9982 27.1143L32.284 14.8286L38.5697 21.0857L25.1697 34.4857Z" stroke="#F8553C" stroke-width="2" stroke-linecap="round" stroke-linejoin="round"/>
<path d="M26.2539 20.8857L32.5111 27.1429" stroke="#F8553C" stroke-width="2" stroke-linecap="round" stroke-linejoin="round"/>
<path d="M12.8555 7.48572L19.1126 13.7429" stroke="#F8553C" stroke-width="2" stroke-linecap="round" stroke-linejoin="round"/>
</g>
<defs>
<clipPath id="clip0_137_3007">
<rect width="40" height="40" fill="white"/>
</clipPath>
</defs>
</svg>
