<svg width="40" height="40" viewBox="0 0 40 40" fill="none" xmlns="http://www.w3.org/2000/svg">
<path d="M36.8839 15.7143H3.11252C1.51252 15.7143 0.826805 13.9715 2.08395 13.1429L18.9697 2.08577C19.2814 1.90237 19.6365 1.80566 19.9982 1.80566C20.3599 1.80566 20.7151 1.90237 21.0268 2.08577L37.9125 13.1429C39.1697 13.9715 38.4839 15.7143 36.8839 15.7143Z" stroke="#70737A" stroke-width="1.5" stroke-linecap="round" stroke-linejoin="round"/>
<path d="M37.142 31.4286H2.85631C2.06733 31.4286 1.42773 32.0682 1.42773 32.8572V37.1429C1.42773 37.9319 2.06733 38.5714 2.85631 38.5714H37.142C37.931 38.5714 38.5706 37.9319 38.5706 37.1429V32.8572C38.5706 32.0682 37.931 31.4286 37.142 31.4286Z" stroke="#70737A" stroke-width="1.5" stroke-linecap="round" stroke-linejoin="round"/>
<path d="M5.71289 15.7144V31.4286" stroke="#70737A" stroke-width="1.5" stroke-linecap="round" stroke-linejoin="round"/>
<path d="M12.8555 15.7144V31.4286" stroke="#70737A" stroke-width="1.5" stroke-linecap="round" stroke-linejoin="round"/>
<path d="M20 15.7144V31.4286" stroke="#70737A" stroke-width="1.5" stroke-linecap="round" stroke-linejoin="round"/>
<path d="M27.1426 15.7144V31.4286" stroke="#70737A" stroke-width="1.5" stroke-linecap="round" stroke-linejoin="round"/>
<path d="M34.2852 15.7144V31.4286" stroke="#70737A" stroke-width="1.5" stroke-linecap="round" stroke-linejoin="round"/>
</svg>
