<svg width="50" height="50" viewBox="0 0 50 50" fill="none" xmlns="http://www.w3.org/2000/svg">
<circle cx="25" cy="25" r="25" fill="#F8553C"/>
<path fill-rule="evenodd" clip-rule="evenodd" d="M25.8493 37.4617C20.9051 34.7666 16.4416 37.8314 15.9216 28.3899C15.969 31.5506 15.6361 33.3875 14.5897 34.263C14.574 34.2473 17.3357 36.7542 18.9644 37.5186C20.3727 38.1797 21.7557 38.4405 23.1128 38.3009C24.0351 38.2062 24.9473 37.9265 25.8493 37.4617ZM28.3778 35.71C24.0688 30.9682 17.2047 28.2729 18.819 21.2273C15.6539 27.3784 24.2682 31.9994 27.69 36.2598C27.9315 36.0762 28.1598 35.8942 28.3778 35.71ZM33.0159 28.8292C32.9302 28.7325 32.8603 28.6168 32.8107 28.4804C32.4523 27.4934 32.737 27.1712 31.8433 26.4831C29.3102 24.5327 29.2015 25.6771 27.6035 25.6547C26.6202 25.6412 25.3206 24.6384 25.2778 25.5311C25.1216 28.7842 27.679 31.3383 29.4398 34.6998C30.6182 33.4287 31.5857 31.7941 33.0159 28.8292ZM29.5203 14.8678C32.3497 17.1467 33.0848 18.3811 35.3163 21.2421C36.0814 22.2153 37.2702 24.198 38.5939 24.7129C38.9781 24.8624 39.0634 25.0049 38.9612 25.3734C38.7845 26.0108 38.4203 26.1977 38.3843 27.1667C38.3407 28.3381 38.4063 28.8846 37.2393 29.0556C36.0074 29.2359 35.6412 28.2074 34.8851 29.0598C34.3097 29.2717 33.6724 29.2901 33.2402 29.0183C31.7865 32.0259 30.7976 33.6759 29.5762 34.9694L29.5773 34.9681C30.3092 36.4206 30.8797 38.0271 31.0157 39.9047C30.4671 38.388 29.5972 37.0917 28.5666 35.9218C28.4434 36.026 27.9118 36.4443 27.865 36.483C28.7717 37.6736 29.2479 38.8373 28.9186 40C27.9935 38.9219 27.0605 38.1704 26.1417 37.628C26.1821 37.6061 24.0933 38.4851 23.1419 38.5829C21.7321 38.7278 20.299 38.4586 18.8429 37.7751C17.3723 37.0846 15.8777 35.9709 14.3591 34.4332C14.1302 34.5815 13.8719 34.6925 13.5815 34.7688C13.7039 34.4843 13.8061 34.211 13.8915 33.9471C12.9467 32.9398 11.9928 31.7698 11.0297 30.4367C10.9203 30.2854 11.1511 30.1202 11.2603 30.2713C12.1785 31.5422 13.0872 32.6625 13.9865 33.6333C15.2975 28.9685 11.1873 27.301 14.3821 21.3918C13.1001 21.6991 12.389 22.8052 11.4821 23.6519C12.1091 18.5848 15.8928 16.9755 19.6901 14.9994C18.8664 14.6813 17.8031 15.2297 16.9456 15.285C19.0815 12.8274 23.5972 11.1882 26.596 12.7748L26.6733 11.6748L26.4872 10C28.5951 11.2214 29.2856 11.8518 29.5203 14.8678Z" fill="white"/>
<path d="M30 19C30 19.5523 29.5523 20 29 20C28.4477 20 28 19.5523 28 19C28 18.4477 28.4477 18 29 18C29.5523 18 30 18.4477 30 19Z" fill="#F8553C"/>
</svg>
