<svg width="158" height="50" viewBox="0 0 158 50" fill="none" xmlns="http://www.w3.org/2000/svg">
<circle cx="25" cy="25" r="25" fill="#F8553C"/>
<path fill-rule="evenodd" clip-rule="evenodd" d="M25.8493 37.4617C20.9051 34.7666 16.4416 37.8314 15.9216 28.3899C15.969 31.5506 15.6361 33.3875 14.5897 34.263C14.574 34.2473 17.3357 36.7542 18.9644 37.5186C20.3727 38.1797 21.7557 38.4405 23.1128 38.3009C24.0351 38.2062 24.9473 37.9265 25.8493 37.4617ZM28.3778 35.71C24.0688 30.9682 17.2047 28.2729 18.819 21.2273C15.6539 27.3784 24.2682 31.9994 27.69 36.2598C27.9315 36.0762 28.1598 35.8942 28.3778 35.71ZM33.0159 28.8292C32.9302 28.7325 32.8603 28.6168 32.8107 28.4804C32.4523 27.4934 32.737 27.1712 31.8433 26.4831C29.3102 24.5327 29.2015 25.6771 27.6035 25.6547C26.6202 25.6412 25.3206 24.6384 25.2778 25.5311C25.1216 28.7842 27.679 31.3383 29.4398 34.6998C30.6182 33.4287 31.5857 31.7941 33.0159 28.8292ZM29.5203 14.8678C32.3497 17.1467 33.0848 18.3811 35.3163 21.2421C36.0814 22.2153 37.2702 24.198 38.5939 24.7129C38.9781 24.8624 39.0634 25.0049 38.9612 25.3734C38.7845 26.0108 38.4203 26.1977 38.3843 27.1667C38.3407 28.3381 38.4063 28.8846 37.2393 29.0556C36.0074 29.2359 35.6412 28.2074 34.8851 29.0598C34.3097 29.2717 33.6724 29.2901 33.2402 29.0183C31.7865 32.0259 30.7976 33.6759 29.5762 34.9694L29.5773 34.9681C30.3092 36.4206 30.8797 38.0271 31.0157 39.9047C30.4671 38.388 29.5972 37.0917 28.5666 35.9218C28.4434 36.026 27.9118 36.4443 27.865 36.483C28.7717 37.6736 29.2479 38.8373 28.9186 40C27.9935 38.9219 27.0605 38.1704 26.1417 37.628C26.1821 37.6061 24.0933 38.4851 23.1419 38.5829C21.7321 38.7278 20.299 38.4586 18.8429 37.7751C17.3723 37.0846 15.8777 35.9709 14.3591 34.4332C14.1302 34.5815 13.8719 34.6925 13.5815 34.7688C13.7039 34.4843 13.8061 34.211 13.8915 33.9471C12.9467 32.9398 11.9928 31.7698 11.0297 30.4367C10.9203 30.2854 11.1511 30.1202 11.2603 30.2713C12.1785 31.5422 13.0872 32.6625 13.9865 33.6333C15.2975 28.9685 11.1873 27.301 14.3821 21.3918C13.1001 21.6991 12.389 22.8052 11.4821 23.6519C12.1091 18.5848 15.8928 16.9755 19.6901 14.9994C18.8664 14.6813 17.8031 15.2297 16.9456 15.285C19.0815 12.8274 23.5972 11.1882 26.596 12.7748L26.6733 11.6748L26.4872 10C28.5951 11.2214 29.2856 11.8518 29.5203 14.8678Z" fill="white"/>
<path d="M30 19C30 19.5523 29.5523 20 29 20C28.4477 20 28 19.5523 28 19C28 18.4477 28.4477 18 29 18C29.5523 18 30 18.4477 30 19Z" fill="#F8553C"/>
<path d="M61.931 35V14.588H72.319C73.159 14.588 73.9244 14.6627 74.615 14.812C75.3057 14.9613 75.9217 15.1853 76.463 15.484C77.023 15.7827 77.4897 16.156 77.863 16.604C78.255 17.052 78.5537 17.5747 78.759 18.172C78.9644 18.7693 79.067 19.4413 79.067 20.188C79.067 21.4573 78.731 22.5307 78.059 23.408C77.387 24.2667 76.4724 24.8547 75.315 25.172V25.34C76.099 25.4707 76.7337 25.7133 77.219 26.068C77.723 26.404 78.087 26.8427 78.311 27.384C78.535 27.9067 78.647 28.5507 78.647 29.316V32.676C78.647 33.0493 78.6564 33.432 78.675 33.824C78.7124 34.216 78.815 34.608 78.983 35H74.587C74.475 34.7573 74.391 34.4307 74.335 34.02C74.2977 33.6093 74.279 33.1613 74.279 32.676V30.072C74.279 29.4933 74.1857 29.008 73.999 28.616C73.831 28.224 73.523 27.9253 73.075 27.72C72.627 27.496 71.983 27.384 71.143 27.384H65.907V23.94H71.311C72.487 23.94 73.327 23.66 73.831 23.1C74.335 22.54 74.587 21.84 74.587 21C74.587 20.4773 74.503 20.048 74.335 19.712C74.1857 19.3573 73.9617 19.068 73.663 18.844C73.3644 18.62 73.019 18.4613 72.627 18.368C72.235 18.256 71.7964 18.2 71.311 18.2H66.299V35H61.931ZM82.0521 35V19.992H86.1681V35H82.0521ZM84.0961 18.228C83.4614 18.228 82.9388 18.06 82.5281 17.724C82.1174 17.388 81.9121 16.9213 81.9121 16.324C81.9121 15.708 82.1174 15.232 82.5281 14.896C82.9388 14.56 83.4614 14.392 84.0961 14.392C84.7494 14.392 85.2814 14.56 85.6921 14.896C86.1028 15.232 86.3081 15.708 86.3081 16.324C86.3081 16.9213 86.1028 17.388 85.6921 17.724C85.2814 18.06 84.7494 18.228 84.0961 18.228ZM95.0563 35.252C94.1417 35.252 93.311 35.084 92.5643 34.748C91.8177 34.3933 91.1737 33.8893 90.6323 33.236C90.091 32.564 89.671 31.7427 89.3723 30.772C89.0923 29.8013 88.9523 28.7093 88.9523 27.496C88.9523 25.8533 89.2043 24.4533 89.7083 23.296C90.231 22.12 90.9497 21.2333 91.8643 20.636C92.779 20.02 93.843 19.712 95.0563 19.712C95.8217 19.712 96.5123 19.8333 97.1283 20.076C97.7443 20.3 98.2763 20.6267 98.7243 21.056C99.1723 21.4667 99.499 21.952 99.7043 22.512H99.8723V14.588H103.988V35H100.096L99.9283 32.452H99.7043C99.4057 33.292 98.8363 33.9733 97.9963 34.496C97.175 35 96.195 35.252 95.0563 35.252ZM96.5403 31.92C97.287 31.92 97.903 31.7613 98.3883 31.444C98.8923 31.1267 99.2657 30.688 99.5083 30.128C99.751 29.568 99.8723 28.9333 99.8723 28.224V26.74C99.8723 26.012 99.7417 25.3773 99.4803 24.836C99.2377 24.276 98.8643 23.8373 98.3603 23.52C97.875 23.2027 97.3057 23.044 96.6523 23.044C95.8683 23.044 95.215 23.2213 94.6923 23.576C94.1883 23.9307 93.8057 24.444 93.5443 25.116C93.283 25.7693 93.1523 26.5627 93.1523 27.496C93.1523 28.392 93.2737 29.176 93.5163 29.848C93.759 30.52 94.1323 31.0333 94.6363 31.388C95.1403 31.7427 95.775 31.92 96.5403 31.92ZM113.977 35.28C112.409 35.28 111.074 34.9627 109.973 34.328C108.89 33.6933 108.06 32.7973 107.481 31.64C106.902 30.4827 106.613 29.1387 106.613 27.608C106.613 25.984 106.902 24.584 107.481 23.408C108.078 22.232 108.909 21.3267 109.973 20.692C111.056 20.0387 112.334 19.712 113.809 19.712C115.526 19.712 116.926 20.0853 118.009 20.832C119.11 21.5787 119.904 22.6053 120.389 23.912C120.874 25.2187 121.033 26.712 120.865 28.392H110.645C110.645 29.2133 110.776 29.9133 111.037 30.492C111.317 31.052 111.709 31.472 112.213 31.752C112.717 32.032 113.305 32.172 113.977 32.172C114.761 32.172 115.396 32.0133 115.881 31.696C116.366 31.3787 116.693 30.9587 116.861 30.436H120.753C120.604 31.4253 120.221 32.284 119.605 33.012C118.989 33.7213 118.196 34.2813 117.225 34.692C116.273 35.084 115.19 35.28 113.977 35.28ZM110.645 26.236L110.281 25.844H117.225L116.833 26.236C116.87 25.452 116.758 24.8173 116.497 24.332C116.254 23.828 115.9 23.4453 115.433 23.184C114.985 22.9227 114.444 22.792 113.809 22.792C113.174 22.792 112.614 22.932 112.129 23.212C111.662 23.4733 111.298 23.8653 111.037 24.388C110.794 24.892 110.664 25.508 110.645 26.236ZM128.656 35.252C127.517 35.252 126.547 35.028 125.744 34.58C124.941 34.132 124.335 33.4693 123.924 32.592C123.513 31.696 123.308 30.6133 123.308 29.344V19.992H127.424V28.252C127.424 29.036 127.517 29.6987 127.704 30.24C127.909 30.7813 128.217 31.2013 128.628 31.5C129.057 31.78 129.608 31.92 130.28 31.92C130.971 31.92 131.559 31.752 132.044 31.416C132.529 31.08 132.903 30.6413 133.164 30.1C133.425 29.54 133.556 28.9333 133.556 28.28V19.992H137.672V35H133.724L133.556 32.256H133.388C133.015 33.2267 132.399 33.9733 131.54 34.496C130.7 35 129.739 35.252 128.656 35.252ZM141.197 39.676V19.992H145.117L145.257 22.54H145.481C145.798 21.7 146.367 21.0187 147.189 20.496C148.029 19.9733 149.009 19.712 150.129 19.712C151.062 19.712 151.902 19.8893 152.649 20.244C153.395 20.5987 154.039 21.112 154.581 21.784C155.122 22.4373 155.533 23.2493 155.813 24.22C156.111 25.172 156.261 26.264 156.261 27.496C156.261 29.12 155.999 30.52 155.477 31.696C154.973 32.8533 154.263 33.74 153.349 34.356C152.434 34.972 151.361 35.28 150.129 35.28C149.382 35.28 148.691 35.168 148.057 34.944C147.441 34.7013 146.909 34.3653 146.461 33.936C146.013 33.5067 145.686 33.0213 145.481 32.48H145.313V39.676H141.197ZM148.561 31.948C149.326 31.948 149.97 31.7707 150.493 31.416C151.015 31.0427 151.398 30.52 151.641 29.848C151.902 29.176 152.033 28.392 152.033 27.496C152.033 26.5813 151.911 25.7973 151.669 25.144C151.426 24.472 151.053 23.9587 150.549 23.604C150.045 23.2307 149.41 23.044 148.645 23.044C147.917 23.044 147.301 23.212 146.797 23.548C146.293 23.8653 145.919 24.304 145.677 24.864C145.434 25.424 145.313 26.0587 145.313 26.768V28.252C145.313 28.98 145.443 29.624 145.705 30.184C145.966 30.7253 146.339 31.1547 146.825 31.472C147.31 31.7893 147.889 31.948 148.561 31.948Z" fill="#061619"/>
</svg>
