<svg width="31" height="24" viewBox="0 0 31 24" fill="none" xmlns="http://www.w3.org/2000/svg">
<path d="M2.78652 22.0588C1.04495 20.1177 1.57361e-06 18 1.26506e-06 14.4706C7.25095e-07 8.29412 4.35393 2.82353 10.4494 -9.13519e-07L12.0169 2.29412C6.26966 5.47059 5.05056 9.52941 4.70225 12.1765C5.57303 11.6471 6.79214 11.4706 8.01124 11.6471C11.1461 12 13.5843 14.4706 13.5843 17.8235C13.5843 19.4118 12.8876 21 11.8427 22.2353C10.6236 23.4706 9.23034 24 7.48877 24C5.57304 24 3.83146 23.1177 2.78652 22.0588ZM20.2022 22.0588C18.4607 20.1176 17.4157 18 17.4157 14.4706C17.4157 8.29412 21.7697 2.82353 27.8652 -2.43605e-06L29.4326 2.29412C23.6854 5.47059 22.4663 9.52941 22.118 12.1765C22.9888 11.6471 24.2079 11.4706 25.427 11.6471C28.5618 12 31 14.4706 31 17.8235C31 19.4118 30.3034 21 29.2584 22.2353C28.2135 23.4706 26.6461 24 24.9045 24C22.9888 24 21.2472 23.1177 20.2022 22.0588Z" fill="#175caa"/>
</svg>
